<svg xmlns="http://www.w3.org/2000/svg" width="279" height="309" fill="none" viewBox="0 0 279 309">
  <g clip-path="url(#a)">
    <g clip-path="url(#b)">
      <path fill="#D8C4E5" d="M325.265 46.507c-21.767 23.962-35.137 51.844-43.181 82.286-11.74-1.171-14.43-4.138-12.501-14.567 3.153-17.154-1.44-32.866-7.609-48.25-1.956 15.766-3.886 31.504-5.842 47.242-.652.055-1.332.136-1.984.191-2.364-2.042-4.701-4.166-7.147-6.154-6.495-5.31-12.609-11.273-19.675-15.63-5.489-3.376-8.043-7.569-9.592-13.423-3.288-12.253-8.859-23.472-16.359-33.383 3.695 12.062 7.445 24.288 11.196 36.487-.571.3-1.142.599-1.712.926-24.974-11.083-51.035-13.914-78.345-10.402-3.207-15.194-2.283-29.925.081-44.764-7.392 13.505-11.794 27.882-14.212 42.967-.272 1.743-1.169 4.357-2.392 4.82-8.179 2.94-16.55 5.364-24.81 7.978-2.636-11.709-5.19-23.172-7.935-35.398-3.533 12.634-5.897 24.86-5.897 37.522 0 1.987-.3 4.874-1.604 5.8-4.13 2.94-8.777 5.173-13.424 7.76-2.038-3.84-3.777-7.134-6.305-11.9-.543 6.018-.788 10.184-1.386 14.323-.244 1.607-.87 3.676-2.065 4.547-18.234 13.424-34.485 28.972-50.273 47.488.733-3.077.924-4.602 1.44-6.018 6.033-15.902 11.386-32.103 18.316-47.569C34.059 72.593 50.826 49.012 73.87 30.442c33.724-27.175 72.774-33.71 114.624-29.08 36.169 4.03 69.703 16.99 102.911 30.932 11.141 4.683 22.283 9.34 33.86 14.213Z" opacity=".75"/>
    </g>
    <g clip-path="url(#c)">
      <path fill="#D8C4E5" d="M341.004 79.336c-12.619 32.26-15.336 65.213-11.744 98.679-12.196 3.333-16.023 1.402-18.08-9.746-3.405-18.329-14.009-32.248-26.065-45.236 4.071 16.484 8.159 32.931 12.219 49.388-.632.305-1.28.647-1.912.951-3.147-1.131-6.298-2.355-9.505-3.401-8.53-2.809-16.928-6.416-25.665-8.055-6.784-1.265-10.944-4.47-14.732-9.719-7.976-10.968-17.841-20.028-29.136-27.044a44224.214 44224.214 0 0 0 25.156 32.121c-.456.518-.913 1.036-1.359 1.581-29.229-1.485-56.39 5.681-82.376 19.658-9.019-13.934-13.727-28.99-17.036-44.707-2.232 16.313-1.14 32.349 2.208 48.331.395 1.844.497 4.796-.55 5.727-7.06 6.071-14.509 11.699-21.776 17.475-7.115-10.674-14.055-21.136-21.477-32.285 1.296 13.964 3.606 27.072 8.447 39.708.76 1.984 1.565 4.979.614 6.403-3.009 4.519-6.805 8.529-10.466 12.892-3.508-3.05-6.508-5.671-10.86-9.458 1.758 6.214 3.106 10.466 4.09 14.825.37 1.698.536 4.002-.327 5.331-13.114 20.388-23.43 42.136-32.149 66.668-.442-3.352-.835-4.946-.86-6.558-.043-18.183-.882-36.405.138-54.497 1.774-31.345 9.535-61.308 25.494-88.676 23.356-40.051 59.934-61.546 103.581-72.972 37.736-9.846 76.249-9.768 114.81-8.587 12.94.402 25.87.777 39.318 1.203Z" opacity=".75"/>
    </g>
  </g>
  <defs>
    <clipPath id="a">
      <path fill="#fff" d="M0 0h281v309H0z"/>
    </clipPath>
    <clipPath id="b">
      <path fill="#fff" d="M2.265 0h323v153h-323z"/>
    </clipPath>
    <clipPath id="c">
      <path fill="#fff" d="M0 156.768 323.22 32.922l58.507 152.696L58.508 309.464z"/>
    </clipPath>
  </defs>
</svg>
