<svg xmlns="http://www.w3.org/2000/svg" width="433" height="488" fill="none" viewBox="0 0 433 488">
  <path fill="#5B7D65" d="M0 0h433v488H0z"/>
  <path fill="#D5E3C1" d="M153.444 106.898c1.508-.174 5.162-.812 7.482-2.784l.348-.29V108h-28.246v-.986h.29s.058-.058.116-.058h.174c.058 0 .232-.116.58-.464.232-.232.348-.58.348-1.102V70.474c0-.464-.116-.754-.29-.986-.29-.29-.464-.348-.522-.406-.174-.058-.348-.058-.522-.058h-.174v-1.16h20.126c.87 0 3.132 0 4.93-.116h.058c.406 0 .754-.058 1.102-.058l.232-.058v4.06l-.348-.232a15.635 15.635 0 0 0-2.784-1.334c-.87-.348-2.03-.638-3.248-.812l-.29-.058c-.058 0-.116-.058-.174-.058h-.348a21.506 21.506 0 0 0-2.726-.174H138.19v15.718h15.08v.812h-15.08v21.402h14.674l.232-.058h.348Zm42.291-38.338v-1.044h7.482v1.044l-.58.058c-1.392.116-2.378 1.334-2.378 3.016v36.018h-1.856c-5.916-8.526-12.006-17.168-17.864-25.52-2.436-3.48-4.872-7.018-7.366-10.498v31.958c0 1.682.986 2.9 2.378 3.016l.638.058v1.044h-7.54v-1.044l.638-.058c1.392-.116 2.32-1.334 2.32-3.016v-31.9c0-1.624-.928-2.9-2.32-2.958l-.58-.116-.174-1.102h6.496l23.664 33.988v-29.87c0-1.682-.986-2.9-2.32-3.016l-.638-.058Zm17.758.174v-.986h6.728v.986h-.232a1.18 1.18 0 0 0-.87.348c-.232.29-.348.58-.406.812l-.058.464v37.758c0 1.334-.116 2.61-.406 3.828-.232 1.218-.696 2.436-1.276 3.596a7.823 7.823 0 0 1-2.61 2.726c-1.16.696-2.494.986-4.002.986-.638 0-.696-.348-.696-.522 0-.174.058-.58.696-.58 1.044 0 1.856-.29 2.552-.928.638-.58 1.102-1.45 1.392-2.552.29-1.102.464-2.146.58-3.132.058-.928.116-2.088.116-3.422V70.358c0-.522-.116-.87-.29-1.16-.232-.232-.464-.406-.638-.406l-.58-.058Zm34.377-2.204c9.686.058 20.01 7.598 20.01 21.692 0 12.18-8.41 21.054-19.952 21.054-9.802 0-20.126-7.598-20.126-21.634 0-12.238 8.41-21.112 20.01-21.112h.058Zm-.174 1.102c-9.744 0-16.298 8.062-16.298 19.952 0 15.196 8.816 20.532 16.356 20.532 9.686 0 16.24-7.946 16.24-19.836 0-15.254-8.758-20.648-16.298-20.648Zm54.574.058.058-.174h3.364l-1.566 2.436c-.29.406-.638.928-1.102 1.624l-.58.986-.348.522-9.338 14.964-.058 15.544v1.45c0 .522.116.928.29 1.16.232.232.464.406.638.406l.58.058v1.044h-6.67v-1.044h.174c.116 0 .232 0 .406-.058.058 0 .232-.058.58-.406.232-.29.348-.638.348-1.16v-2.146h.058V88.802l-12.644-19.14c-.638-.928-.986-1.044-1.856-1.044h-.232v-1.102h4.93l2.32 3.422 10.556 15.834 6.902-11.368c.348-.58.754-1.276 1.102-2.03l.058-.116.058-.116c.232-.58.464-1.102.696-1.682v-.058c.348-.812.928-2.378 1.276-3.712Zm-137.56 72.466v-4.64h31.146v5.162l-.348-.406c-.638-.696-1.392-1.334-2.204-1.798a1.268 1.268 0 0 1-.29-.174 1.268 1.268 0 0 1-.29-.174c-.116-.058-.116-.058-.174-.058l-.058-.058a14.356 14.356 0 0 0-3.016-.928c-1.45-.29-3.074-.406-4.756-.406h-2.61v36.366c0 .522.116.928.348 1.16.232.232.406.406.638.406l.58.058v1.044h-6.728v-1.044h.232c.116 0 .232 0 .406-.058 0 0 .174-.058.58-.406.232-.29.348-.638.348-1.16v-36.366h-2.552c-.696.058-1.392.058-2.03.116h-.116c-.696.058-1.392.174-2.03.29h-.058c-.116 0-.29.058-.464.058l-.174.058c-.638.116-1.218.29-1.798.464l-.348.116c-.058.058-.116.058-.174.058-1.45.522-2.726 1.218-3.712 2.03l-.348.29Zm62.968-3.596v-1.044h6.67v1.044h-.232c-.348 0-.638.116-.87.406-.232.232-.348.464-.348.754l-.058.464V173.1c0 .464.116.87.29 1.102.232.232.464.406.638.406l.58.058v1.044h-6.67v-1.044h.232c.058 0 .174 0 .348-.058.058 0 .232-.058.58-.406.232-.232.348-.638.348-1.102v-20.3h-21.808v20.3c0 .464.116.87.348 1.102.232.232.406.406.638.406l.58.058v1.044h-6.67v-1.044h.174c.116 0 .232 0 .406-.058.058 0 .174-.058.58-.406.232-.232.348-.638.348-1.102v-34.916c0-.522-.116-.87-.348-1.16-.232-.232-.406-.348-.638-.406l-.522-.058v-1.044h6.67v1.044h-.232c-.348 0-.638.116-.87.406a1.386 1.386 0 0 0-.406.754l-.058.464v13.34h21.808v-13.34c0-.522-.116-.87-.29-1.16a1.638 1.638 0 0 0-.638-.406l-.58-.058Zm36.788 38.338c1.508-.174 5.162-.812 7.482-2.784l.348-.29V176H244.05v-.986h.29s.058-.058.116-.058h.174c.058 0 .232-.116.58-.464.232-.232.348-.58.348-1.102v-34.916c0-.464-.116-.754-.29-.986-.29-.29-.464-.348-.522-.406-.174-.058-.348-.058-.522-.058h-.174v-1.16h20.126c.87 0 3.132 0 4.93-.116h.058c.406 0 .754-.058 1.102-.058l.232-.058v4.06l-.348-.232a15.635 15.635 0 0 0-2.784-1.334c-.87-.348-2.03-.638-3.248-.812l-.29-.058c-.058 0-.116-.058-.174-.058h-.348a21.506 21.506 0 0 0-2.726-.174h-11.368v15.718h15.08v.812h-15.08v21.402h14.674l.232-.058h.348Zm-101.003 28.56c10.846 0 11.658 8.468 11.658 11.02 0 5.22-3.596 10.788-13.688 10.788-3.248 0-6.09-.58-7.54-.87V241.1c0 .464.116.87.348 1.102.232.232.406.406.638.406l.58.058v1.044h-6.728v-1.044h.174c.116 0 .232 0 .406-.058.058 0 .174-.058.58-.406.232-.29.348-.638.348-1.102v-35.032c0-.522-.116-.87-.348-1.16a1.103 1.103 0 0 0-.638-.406l-.522-.058V203.4h.174c1.624 0 3.132.058 4.64.058h9.918Zm-9.57 2.9v16.878c1.74.406 4.582 1.044 7.946 1.044 8.41 0 9.686-6.438 9.686-10.266v-.058c0-4.466-2.436-9.338-7.714-9.338l-8.062.058c-1.276 0-1.74.464-1.856 1.682Zm52.773 34.104c.696 1.508.696 2.552 2.552 2.726V244h-7.946v-.754c1.972-.232 1.914-1.508 1.276-3.016l-3.828-10.208h-15.486l-3.422 9.744-.058.116c-.174.58-.696 2.668 1.682 3.306V244H176.1v-1.044c.87-.116 1.218.174 2.32-2.378l11.774-32.944-1.392-3.712h3.712l.058.522 14.094 36.018Zm-23.142-11.31h14.848l-5.452-14.616-.058-.058-2.204-5.626-7.134 20.3Zm50.219 12.47c.87-.406 2.146-1.044 3.19-1.798l.348-.29V244h-21.634v-.986h.232c0-.058.058-.058.058-.058h.348c.348-.058.638-.232.754-.638.058-.116.058-.232.116-.348v-.058c0-.232.058-.522.058-.812v-25.404l-.058-9.164c0-.522-.116-.87-.348-1.16-.174-.232-.406-.406-.638-.406l-.522-.058v-1.044h6.728v1.044h-.232a1.18 1.18 0 0 0-.87.348c-.232.29-.348.522-.406.812l-.058.464v36.424h7.308c1.392 0 3.074-.29 4.524-.87h.116c0-.058.058-.058.058-.058l.232-.116c.116-.058.29-.116.522-.232.058 0 .116 0 .174-.058Zm51.48-1.74c.116 1.508 1.16 2.61 2.436 2.726l.638.058v1.044h-9.918v-1.218l.406.174.406-.058c1.218-.116 2.146-1.16 2.262-2.61l-1.16-32.306-14.268 36.018h-1.392c-2.958-6.96-5.916-14.094-8.816-20.938-1.914-4.524-3.77-8.99-5.684-13.514l-1.044 29.696c-.058 2.03 1.276 3.538 3.248 3.654l.986.058v1.044h-8.816v-1.044l.58-.058c1.276-.116 2.32-1.392 2.436-3.016l1.102-32.364c-.058-1.392-.986-2.436-2.204-2.552l-.638-.058v-1.044h6.09l.058.116 14.558 35.206 13.63-35.322h6.438v1.044l-.522.058c-1.334.116-2.262 1.334-2.204 2.958l1.392 32.248Zm-103.471 69.74c.87-.406 2.146-1.044 3.19-1.798l.348-.29V312h-21.634v-.986h.232c0-.058.058-.058.058-.058h.348c.348-.058.638-.232.754-.638.058-.116.058-.232.116-.348v-.058c0-.232.058-.522.058-.812v-25.404l-.058-9.164c0-.522-.116-.87-.348-1.16-.174-.232-.406-.406-.638-.406l-.522-.058v-1.044h6.728v1.044h-.232a1.18 1.18 0 0 0-.87.348c-.232.29-.348.522-.406.812l-.058.464v36.424h7.308c1.392 0 3.074-.29 4.524-.87h.116c0-.058.058-.058.058-.058l.232-.116c.116-.058.29-.116.522-.232.058 0 .116 0 .174-.058Zm13.201-37.062v-1.044h6.67v1.044h-.232a1.18 1.18 0 0 0-.87.348c-.232.29-.348.522-.406.812l-.058.464V309.1c0 .464.116.87.348 1.102.232.232.406.406.638.406l.58.116v.986h-6.67v-1.044h.174c.116 0 .232 0 .406-.058 0 0 .174-.058.58-.406.232-.232.348-.638.348-1.102v-34.916c0-.522-.116-.87-.348-1.16-.232-.232-.406-.348-.638-.406l-.522-.058Zm16.361-.638h26.564v5.22l-.348-.58c-.638-1.044-1.334-1.624-1.798-1.914a5.1 5.1 0 0 0-.58-.348c-.464-.29-.986-.464-1.682-.696-1.566-.406-3.48-.638-5.684-.58h-11.31v15.834h.058v.174h15.022v.754h-15.08V312h-3.712v-2.146c.058-.174.058-.29.058-.464v-34.916c0-.406-.116-.754-.29-.986-.29-.232-.464-.348-.522-.406-.174 0-.348-.058-.522-.058h-.174v-1.102Zm54.205 38.976c1.508-.174 5.162-.812 7.482-2.784l.348-.29V312h-28.246v-.986h.29s.058-.058.116-.058h.174c.058 0 .232-.116.58-.464.232-.232.348-.58.348-1.102v-34.916c0-.464-.116-.754-.29-.986-.29-.29-.464-.348-.522-.406-.174-.058-.348-.058-.522-.058h-.174v-1.16h20.126c.87 0 3.132 0 4.93-.116h.058c.406 0 .754-.058 1.102-.058l.232-.058v4.06l-.348-.232a15.635 15.635 0 0 0-2.784-1.334c-.87-.348-2.03-.638-3.248-.812l-.29-.058c-.058 0-.116-.058-.174-.058h-.348a21.506 21.506 0 0 0-2.726-.174h-11.368v15.718h15.08v.812h-15.08v21.402h14.674l.232-.058h.348Z"/>
  <path fill="#F6F4F3" d="m252.207 366.889-29.126-29.188c-13.062-13.09-34.241-13.09-47.303 0l-29.127 29.188c-13.062 13.089-13.062 34.312 0 47.402l29.127 29.187c13.062 13.09 34.241 13.09 47.303 0l29.126-29.187c13.063-13.09 13.063-34.313 0-47.402Z"/>
  <path fill="#231F20" d="M155.738 374.604h9.833v1.622l-.121-.133a3.198 3.198 0 0 0-.701-.581c-.036-.025-.06-.037-.096-.061a.38.38 0 0 0-.097-.048c-.024 0-.036-.013-.048-.025l-.025-.012c-.241-.121-.567-.218-.942-.29a8.382 8.382 0 0 0-1.498-.133h-.821v11.523c0 .158.036.279.109.351.072.073.133.122.205.134l.181.024v.327h-2.114v-.327h.073c.024 0 .06 0 .121-.012.012 0 .072-.024.181-.133a.515.515 0 0 0 .121-.351v-11.524h-.81c-.217.024-.435.024-.64.048h-.048a9.819 9.819 0 0 0-.628.085h-.037c-.036 0-.084.012-.132.024h-.049a7.987 7.987 0 0 0-.568.157l-.12.037s-.037 0-.049.012a3.775 3.775 0 0 0-1.183.629l-.109.097v-1.452l.012.012Zm22.214 12.068s.061.073.061.121c0 .061-.049.121-.109.145-.314.243-.713.473-1.462.473-1.099 0-1.51-.606-2.331-1.986l-1.51-2.566c-.858-1.452-.93-1.489-1.341-1.489-.229 0-1.099-.145-1.461-.218v5.351c0 .157.036.278.108.351.073.084.133.121.194.133l.181.024v.315h-2.126v-.327h.072c.036 0 .073 0 .121-.012.024 0 .073-.024.181-.133.085-.085.121-.194.121-.351v-11.064c0-.158-.036-.279-.109-.351-.072-.073-.133-.121-.205-.133l-.181-.025v-.314h.072c.495 0 .991 0 1.462.012h3.08l.012.024c2.09.012 3.503 1.368 3.503 3.377 0 2.167-1.667 3.172-3.261 3.402.169.218.459.641.531.762l1.728 2.966c.036.073.084.145.133.23.338.593.893 1.598 1.642 1.598.182 0 .399-.133.568-.242a.718.718 0 0 1 .085-.049c.12-.06.193-.036.229-.012l.012-.012Zm-8.153-10.64v4.781c.41.109 1.57.291 2.271.303h.06c1.981-.012 2.996-1.053 2.996-3.111 0-.69-.073-1.67-.713-2.312-.483-.484-1.232-.714-2.259-.702h-1.764c-.495.012-.591.23-.591.811v.23Zm21.573 5.108c0 3.862-2.645 6.658-6.305 6.658-3.08 0-6.354-2.397-6.354-6.839 0-3.862 2.658-6.658 6.318-6.67h.012c3.068 0 6.317 2.409 6.317 6.851h.012Zm-11.511-.194c0 4.794 2.778 6.489 5.158 6.489 3.068 0 5.121-2.53 5.121-6.283 0-4.817-2.766-6.524-5.146-6.524-3.08 0-5.145 2.53-5.145 6.306l.012.012Zm22.069-2.88c0 1.646-1.135 3.401-4.324 3.401-1.027 0-1.933-.182-2.368-.266v5.265c0 .158.036.279.109.351.072.085.133.121.193.134l.181.024v.327h-2.126v-.327h.073c.036 0 .072 0 .12-.012.025 0 .073-.025.182-.134.084-.084.12-.193.12-.351v-11.076c0-.157-.036-.278-.108-.351-.073-.072-.133-.121-.206-.133l-.181-.024v-.315h.073c.495 0 .99 0 1.461.012h3.129c3.418 0 3.684 2.664 3.684 3.487l-.012-.012Zm-6.692 2.772c.556.133 1.425.338 2.513.338 2.645 0 3.044-2.033 3.044-3.256v-.024c0-1.416-.761-2.941-2.416-2.941h-2.561c-.399.012-.532.157-.568.532v5.351h-.012Zm9.917-6.234h2.114v.326h-.072a.335.335 0 0 0-.278.121.504.504 0 0 0-.121.242v.146l-.012 11.039c0 .158.036.279.109.351.072.085.133.121.205.134l.181.024v.315h-2.114v-.327h.073c.024 0 .072 0 .121-.012.012 0 .072-.025.181-.134.084-.072.121-.193.121-.351v-11.051c0-.158-.037-.279-.109-.351-.073-.085-.133-.121-.205-.134l-.182-.024v-.314h-.012Zm16.622.762h.036v1.731l-.121-.157c-.35-.46-.87-.908-1.498-1.295h-.024a5.005 5.005 0 0 0-.966-.533c-.025 0-.061-.024-.073-.036l-.109-.049a6.04 6.04 0 0 0-2.21-.436c-2.525 0-5.061 1.925-5.061 6.234 0 2.191.628 4.044 1.787 5.218.906.908 2.078 1.368 3.479 1.368 1.389 0 3.177-.836 4.252-1.986a.147.147 0 0 1 .157-.036c.073.012.121.073.145.133a.182.182 0 0 1-.048.17c-1.426 1.428-2.911 2.094-4.675 2.094-1.594 0-3.261-.714-4.457-1.925-.858-.871-1.885-2.397-1.885-4.757 0-4.031 2.658-6.839 6.451-6.839.712 0 1.425.072 2.102.218h.012s.024 0 .048.012c.024 0 .073.012.109.024.447.097.894.23 1.316.375h.037c.29.109.555.194.797.291.133.048.254.096.374.157l.025.024Zm12.333 11.79v.254h-2.501v-.254c.628-.06.592-.484.399-.956l-1.22-3.22h-4.88l-1.075 3.075v.048c-.073.17-.23.823.507 1.041v.266h-1.691v-.338c.29-.025.399.048.737-.739l3.72-10.422-.447-1.186h1.172l.024.169 4.433 11.403c.218.472.23.787.81.859h.012Zm-3.431-4.454-1.727-4.612v-.024l-.713-1.768-2.259 6.404h4.699Zm12.345 3.377.109-.085v1.417h-6.813v-.327h.181c.109-.012.194-.061.242-.206 0-.036.024-.073.024-.109 0-.085.012-.169.012-.266v-8.05l-.012-2.905c0-.158-.036-.279-.108-.363-.073-.073-.133-.121-.206-.134l-.181-.024v-.327h2.126v.327h-.073a.334.334 0 0 0-.277.121.49.49 0 0 0-.121.255l-.024.145v11.524h2.295c.447 0 .966-.097 1.425-.267h.036l.025-.024.06-.024s.097-.049.157-.073c.024 0 .036-.012.06-.024.278-.133.677-.327.991-.569l.072-.012Zm-58.561 19.985.205.024v.327h-3.116v-.375l.133.048h.121c.386-.048.676-.387.7-.835l-.35-10.229-4.506 11.403h-.435c-.93-2.203-1.872-4.454-2.79-6.621-.592-1.416-1.196-2.845-1.788-4.273l-.338 9.381c-.012.642.411 1.126 1.027 1.162l.302.024v.327h-2.791v-.327l.194-.024c.41-.036.724-.436.761-.944l.362-10.253c-.036-.436-.326-.762-.701-.799l-.205-.024v-.327h1.921v.037l4.602 11.136 4.312-11.173h2.042v.327l-.181.024c-.423.037-.701.424-.689.944l.435 10.193c.048.472.362.823.773.859v-.012Zm15.329-5.822c0 3.861-2.646 6.657-6.306 6.657-3.08 0-6.353-2.396-6.353-6.839 0-3.861 2.657-6.658 6.317-6.67h.012c3.068 0 6.318 2.409 6.318 6.852h.012Zm-11.512-.194c0 4.794 2.778 6.488 5.158 6.488 3.068 0 5.122-2.53 5.122-6.282 0-4.818-2.766-6.525-5.146-6.525-3.08 0-5.146 2.53-5.146 6.307l.012.012Zm26.575.194c0 3.861-2.645 6.657-6.305 6.657-3.081 0-6.354-2.396-6.354-6.839 0-3.861 2.657-6.658 6.317-6.67h.012c3.069 0 6.318 2.409 6.318 6.852h.012Zm-11.512-.194c0 4.794 2.779 6.488 5.158 6.488 3.069 0 5.122-2.53 5.122-6.282 0-4.818-2.766-6.525-5.146-6.525-3.08 0-5.146 2.53-5.146 6.307l.012.012Zm24.461-2.917c.314.799.471 1.731.471 2.772 0 1.041-.157 1.985-.483 2.832-.314.848-.749 1.55-1.292 2.094a5.914 5.914 0 0 1-1.836 1.259 5.53 5.53 0 0 1-2.163.448h-5.435v-.327h.072s.073 0 .121-.012c.012 0 .072-.024.181-.133.085-.072.121-.194.121-.351v-11.052a.448.448 0 0 0-.097-.302c-.084-.085-.133-.121-.169-.121a.713.713 0 0 0-.157-.025h-.072v-.363h5.435a6.98 6.98 0 0 1 2.163.339 5.5 5.5 0 0 1 1.836 1.053c.543.472.99 1.114 1.304 1.913v-.024Zm-1.896-1.441c-.809-1.004-1.957-1.501-3.394-1.501h-3.793v12.008h3.793c1.413 0 2.548-.593 3.37-1.743.833-1.162 1.256-2.699 1.256-4.551 0-1.792-.411-3.208-1.232-4.213Z"/>
  <path fill="#EFA693" d="M186.19 365.513a12.327 12.327 0 0 0-4.228-2.712 15.855 15.855 0 0 0-4.892-.98 21.888 21.888 0 0 0-5.037.351 27.2 27.2 0 0 0-4.735 1.307.985.985 0 0 0-.556 1.283c.109.255.278.436.508.545a.994.994 0 0 0 .749.036c1.799-.69 3.756-1.162 5.81-1.428a16.957 16.957 0 0 1 5.967.291 10.575 10.575 0 0 1 5.013 2.723 10.829 10.829 0 0 1 2.307 3.474 16.5 16.5 0 0 1 1.112 3.983 23.94 23.94 0 0 1 .289 3.813c-.024 3.571-.652 7.251-1.884 10.943-1.232 3.704-2.923 7.166-5.037 10.289-2.102 3.123-4.506 5.653-7.151 7.529a18.525 18.525 0 0 1-3.89 2.058 15.762 15.762 0 0 1-4.409 1.029c-1.473.121-2.887-.073-4.179-.569-1.184-.484-2.247-1.259-3.165-2.312-.918-1.053-1.631-2.324-2.102-3.765-.785-2.385-.906-5.29-.35-8.606a32.194 32.194 0 0 1 5.822-13.655 32.018 32.018 0 0 1 11.294-9.623 1 1 0 0 0 .472-.569.979.979 0 0 0-.061-.775.99.99 0 0 0-.568-.472c-.241-.085-.495-.06-.749.061a33.991 33.991 0 0 0-11.982 10.204 34.153 34.153 0 0 0-6.173 14.502c-.616 3.643-.471 6.851.411 9.55.567 1.707 1.425 3.22 2.524 4.479 1.112 1.271 2.416 2.215 3.902 2.821.676.254 1.353.448 2.041.569.689.121 1.39.181 2.078.181a16.25 16.25 0 0 0 5.581-1.065c1.775-.678 3.346-1.489 4.662-2.421 2.815-1.997 5.376-4.685 7.598-8.001 2.223-3.293 4.011-6.936 5.315-10.822 1.305-3.886 1.982-7.783 1.994-11.56-.037-5.556-1.474-9.829-4.301-12.674v-.012Zm58.344-3.256c-.205-.17-.447-.255-.676-.23a.945.945 0 0 0-.64.326c-11.428 13.183-20.85 29.609-28.025 48.856.036-2.082.193-4.164.495-6.222.399-2.76.943-5.556 1.619-8.328.677-2.748 1.401-5.52 2.162-8.256a305.739 305.739 0 0 0 1.921-7.251 101.895 101.895 0 0 0 1.57-7.347 26.86 26.86 0 0 0 .423-3.668 11.362 11.362 0 0 0-.507-3.898 4.44 4.44 0 0 0-.459-.98c-.23-.388-.556-.703-1.015-.969a3.072 3.072 0 0 0-1.933-.302 5.82 5.82 0 0 0-1.715.581c-.495.266-.894.52-1.184.738a37.085 37.085 0 0 0-5.774 5.447 66.842 66.842 0 0 0-4.493 5.907c-5.75 8.341-10.461 17.153-14.025 26.207a65.328 65.328 0 0 0-2.259 6.658 31.938 31.938 0 0 0-1.183 7.372c0 .363.06.738.193 1.126a2.4 2.4 0 0 0 .713 1.016 1.76 1.76 0 0 0 1.606.315.985.985 0 0 0 .556-.436.898.898 0 0 0 .084-.714.908.908 0 0 0-.434-.569.97.97 0 0 0-.677-.097.55.55 0 0 1-.109-.193.85.85 0 0 1-.06-.388 30.025 30.025 0 0 1 1.111-6.972 64.366 64.366 0 0 1 2.187-6.428c3.503-8.921 8.153-17.6 13.819-25.819a63.818 63.818 0 0 1 4.348-5.726 35.353 35.353 0 0 1 5.509-5.193 9.18 9.18 0 0 1 .773-.496 4.724 4.724 0 0 1 1.111-.448c.35-.085.664-.061.954.085.218.109.423.411.568.871a9.82 9.82 0 0 1 .411 3.341 24.537 24.537 0 0 1-.387 3.341c-.423 2.397-.954 4.83-1.558 7.239a290.511 290.511 0 0 1-1.909 7.202 280.002 280.002 0 0 0-2.403 9.26 76.61 76.61 0 0 0-1.655 9.43 44.698 44.698 0 0 0-.073 9.514c.024.218.109.4.254.557.157.158.35.242.555.267a.951.951 0 0 0 .604-.134.847.847 0 0 0 .387-.484c7.296-20.99 17.153-38.735 29.317-52.753a.938.938 0 0 0 .205-.653c0-.255-.12-.472-.314-.642l.012-.06Z"/>
  <path fill="#FCD672" d="M156.664 391.586c26.01-22.753 28.612-62.327 5.811-88.392-22.801-26.065-62.37-28.749-88.38-5.996-26.01 22.753-28.611 62.328-5.81 88.392 22.8 26.065 62.369 28.749 88.379 5.996Z"/>
  <path fill="#231F20" d="m82.493 335.913.009-.008.152.285-.018.016c-.204.114-.273.238-.05.639l1.326 2.378-.019.016c-.275 1.319-1.31 3.237-3.266 4.321-1.351.748-3.085.93-4.667.48-1.135-.325-2.72-1.127-3.822-3.122-1.894-3.393-.979-7.008 2.223-8.796a10.082 10.082 0 0 1 2.838-1.067l.028-.024s.077-.003.111-.001l.01-.008.069-.012c.164-.032.32-.056.485-.087l.06-.005s.044-.006.07-.012l.103-.01s.096-.02.147-.016l.01-.008.068-.013c.182-.03.363-.044.519-.067l.034.002.092.161.72 1.3-.183-.081c-.524-.233-1.126-.334-1.542-.388l-.034-.002s-.043-.012-.069-.005a.288.288 0 0 1-.093-.015l-.239-.016a2.483 2.483 0 0 0-.325-.005l-.034-.002c-1.02.008-2.049.264-2.902.737-2.126 1.184-3.356 3.998-1.333 7.631 1.87 3.367 4.831 4.588 7.543 3.083.908-.504 2.111-1.733 2.565-3.031l-1.97-3.536 1.28-.702.104-.01Zm12.757-7.799c1.817 3.252.904 6.849-2.182 8.568-2.598 1.452-6.483.974-8.575-2.776-1.817-3.251-.895-6.856 2.184-8.584l.009-.008c2.596-1.435 6.462-.942 8.555 2.808l.01-.008Zm-9.797 5.258c2.263 4.035 5.408 4.163 7.41 3.039 2.588-1.444 3.126-4.536 1.363-7.706-2.261-4.053-5.397-4.189-7.407-3.074-2.588 1.444-3.144 4.552-1.374 7.731l.008.01Zm19.655-5.309.051-.125.668 1.185-5.738 3.202-.162-.277.046-.04s.008.01.017.002l.027-.024.046-.04c.082-.072.129-.145.104-.284-.007-.026-.012-.07-.027-.105-.038-.08-.068-.15-.114-.222l-3.788-6.77-1.382-2.442a.518.518 0 0 0-.257-.258.381.381 0 0 0-.24-.016l-.166.066-.154-.268 1.788-1.001.162.277-.046.039a.307.307 0 0 0-.194.219.442.442 0 0 0 .008.266l.051.132 1.327 2.378 4.094 7.323 1.93-1.078a4.483 4.483 0 0 0 1.079-.895l.027-.024s.018-.016.01-.025l.055-.048s.058-.099.095-.148a.097.097 0 0 0 .038-.048 5.56 5.56 0 0 0 .568-.947l.077-.004Zm7.215-12.905c.634.523 1.213 1.239 1.704 2.112.491.873.802 1.743.926 2.6.131.865.087 1.66-.096 2.367a5.531 5.531 0 0 1-.966 1.923 5.247 5.247 0 0 1-1.608 1.39l-4.582 2.561-.161-.277.045-.04s.061-.021.098-.053c.009-.008.054-.048.091-.208a.454.454 0 0 0-.063-.347l-5.207-9.309a.485.485 0 0 0-.217-.212c-.109-.033-.17-.029-.204-.031-.052.013-.096.036-.141.059l-.045.04-.177-.312 4.582-2.561a6.444 6.444 0 0 1 1.984-.722 5.632 5.632 0 0 1 2.038.018c.685.141 1.357.47 1.999 1.002Zm-2.284-.318c-1.153-.456-2.359-.349-3.569.323l-3.202 1.788 5.65 10.111c.152-.084.525-.282 1.129-.618.694-.381 1.396-.771 2.09-1.152 1.183-.665 1.876-1.69 2.026-3.059.15-1.37-.214-2.869-1.089-4.419-.875-1.551-1.857-2.509-3.027-2.965l-.008-.009Zm16.027 1.644.043-.134.629 1.123-6.245 3.484-1.165.649-.107.062-.039-.046-.101-.17-.032-.036.046-.04.008.009.018-.016.027-.023.019-.016.027-.024s.045-.04.08-.183c.033-.109.006-.214-.063-.347l-5.206-9.309c-.061-.107-.133-.189-.217-.212-.109-.033-.17-.029-.204-.031a.635.635 0 0 0-.141.059l-.045.04-.177-.312 1.272-.711 4.101-2.284c.239-.13.827-.467 1.283-.753.107-.061.197-.124.277-.178l.055-.048.606 1.078-.119-.008a4.018 4.018 0 0 0-.947.056 4.158 4.158 0 0 0-.984.25l-.088.028s-.035.015-.044.023l-.097.036a8.517 8.517 0 0 0-.751.352l-3.016 1.689 2.346 4.188 4.012-2.239.115.205-4.011 2.239 2.745 4.899.008.009.436.793 3.638-2.024c.089-.046.16-.092.241-.147l.018-.016.046-.04.073-.063.009-.008c.368-.258 1.254-.969 1.577-1.83l.044-.023Zm3.967-14.985 1.993-1.116.154.267-.146.127c-.366.224-.439.69-.185 1.128l5.367 9.602-.498.275c-2.848-1.384-5.746-2.789-8.545-4.153-1.17-.568-2.349-1.145-3.52-1.713l4.761 8.524c.245.445.687.621 1.067.45l.176-.074.154.268-1.993 1.116-.154-.268.146-.127c.366-.224.439-.69.185-1.127l-4.754-8.499c-.237-.436-.687-.621-1.059-.44l-.176.074-.223-.256 1.744-.978 11.35 5.526-4.447-7.963c-.244-.445-.687-.621-1.067-.45l-.176.074-.154-.267Zm-42.676 61.955c.751 1.353.698 3.458-1.979 4.947a13.2 13.2 0 0 1-1.229.577l-.334.131c-.061.022-.106.045-.167.066-.018.016-.061.022-.088.029-.07.029-.14.041-.2.063-.159.058-.29.092-.386.128l-.019.016a3.975 3.975 0 0 1-.618.155l-.043.006-.782-1.407.183.081c.242.11.562.184.929.217l.009-.008c.263.044.52.044.787.019l.103-.01.06-.004a5.427 5.427 0 0 0 2.06-.692c1.147-.634 2.317-2.268 1.542-3.649-.629-1.123-1.743-1.113-3.834-.989l-2.245.131c-1.325.081-2.34.021-3.137-1.421-.796-1.443-.106-3.333 1.743-4.356a9.746 9.746 0 0 1 1.114-.524s.018-.016.053-.014l.07-.029c.167-.066.325-.124.491-.173.018-.015.053-.013.07-.029l.053-.014s.052-.013.088-.028l.104-.027c.14-.042.245-.069.332-.098l.01-.008c.19-.038.355-.07.511-.093l.043-.006.56.989-.15-.044a3.801 3.801 0 0 0-1.038-.122l-.017-.001a.293.293 0 0 0-.094.002c-.086-.006-.172.005-.25.009l-.04-.046.014.053c-.026.006-.06.004-.086.011a4.945 4.945 0 0 0-1.9.617c-1.326.741-2.006 2.366-1.415 3.409.467.846 1.624.847 2.664.789l1.962-.124c2.393-.163 3.593-.168 4.52 1.498l-.024-.027Zm-2.507-8.904 8.28-4.623.768 1.372-.16-.054a3.388 3.388 0 0 0-.863-.161l-.103-.007c-.034-.002-.068-.005-.094.002-.017-.001-.034-.002-.043.006l-.026.007a4.214 4.214 0 0 0-.938.193 7.505 7.505 0 0 0-1.333.587l-.693.381 5.305 9.496.115.205c.069.133.157.216.25.248a.374.374 0 0 0 .238.016l.168-.065.153.267-1.779.993-.162-.276.046-.04s.061-.021.098-.053c.009-.008.054-.048.09-.208a.5.5 0 0 0-.062-.347l-.115-.205-5.306-9.496-.668.392c-.188.116-.357.215-.519.324l-.036.032c-.17.117-.333.243-.486.361l-.028.024-.1.088-.036.032a4.281 4.281 0 0 0-.412.392l-.09.079s-.02.033-.02.05a3.75 3.75 0 0 0-.698 1.093l-.051.125-.674-1.229-.017-.001Zm23.568.725.123.214-2.117 1.176-.115-.205c.494-.352.268-.684-.115-.993l-2.542-2.135-4.118 2.3.542 3.097.006.043c.04.174.213.794.935.629l.123.214-1.423.795-.16-.294c.224-.165.36-.138.269-.976l-1.776-10.525-.933-.791.987-.559.104.119 9.103 7.525c.409.284.554.56 1.091.348l.016.018Zm-4.984-2.138-3.62-3.073-.016-.019-1.432-1.16 1.119 6.453 3.949-2.201Zm-.51-8.673 8.282-4.623.767 1.372-.16-.054a3.339 3.339 0 0 0-.863-.161l-.102-.007c-.034-.002-.069-.005-.095.002-.017-.001-.034-.002-.043.006l-.026.006a4.282 4.282 0 0 0-.938.194 7.444 7.444 0 0 0-1.333.587l-.693.381 5.305 9.496.115.205c.069.133.158.216.25.248a.375.375 0 0 0 .239.016l.167-.066.153.268-1.779.993-.161-.276.045-.04s.061-.022.098-.053c.009-.008.054-.048.091-.209a.506.506 0 0 0-.063-.347l-.115-.205-5.306-9.495-.668.391c-.188.116-.357.216-.519.325l-.036.032c-.17.117-.333.243-.486.361l-.028.024-.1.088-.036.031c-.145.128-.291.255-.411.392l-.091.08s-.02.033-.021.05a3.76 3.76 0 0 0-.697 1.093l-.051.125-.673-1.229-.018-.001Zm23.251-.171.043-.134.629 1.122-6.245 3.485-1.165.649-.107.061-.04-.045-.1-.17-.032-.036.046-.04.008.009.018-.016.027-.024.018-.016.027-.023s.046-.04.081-.183c.033-.11.015-.222-.063-.348l-5.206-9.309c-.062-.107-.133-.189-.218-.211-.109-.034-.169-.029-.203-.031a.615.615 0 0 0-.141.059l-.046.039-.176-.312 1.272-.71 4.1-2.284c.24-.13.828-.467 1.284-.753.107-.062.196-.124.277-.179l.055-.047.606 1.078-.12-.008a4.004 4.004 0 0 0-.946.055c-.293.032-.633.12-.985.251l-.087.028s-.036.015-.045.023l-.096.036a8.385 8.385 0 0 0-.752.352l-3.016 1.689 2.347 4.187 4.012-2.238.115.205-4.012 2.238 2.746 4.9.008.009.436.793 3.638-2.025a2.34 2.34 0 0 0 .241-.146l.018-.016.045-.04.073-.063.009-.008c.369-.258 1.255-.969 1.577-1.83l.045-.023Zm16.372-14.692c1.817 3.251.904 6.848-2.182 8.567-2.598 1.452-6.483.975-8.575-2.775-1.818-3.252-.895-6.857 2.183-8.585l.01-.008c2.596-1.435 6.462-.941 8.555 2.809l.009-.008Zm-9.797 5.257c2.263 4.036 5.408 4.163 7.41 3.039 2.588-1.444 3.125-4.535 1.363-7.706-2.261-4.053-5.397-4.188-7.407-3.074-2.589 1.445-3.144 4.552-1.374 7.732l.008.009Zm15.717-15.663.782 1.408-.198-.117a2.006 2.006 0 0 0-.747-.247l-.205-.014c-.154.006-.335.02-.544.074-.479.113-1.026.35-1.604.68l-2.999 1.69 2.345 4.204.032.037 4.003-2.231.115.205-4.012 2.239 2.707 4.837.444.801.153.285-.979.551-.33-.58s-.029-.087-.06-.124l-5.199-9.3a.485.485 0 0 0-.217-.212c-.11-.033-.17-.028-.204-.031-.052.014-.097.037-.141.059l-.045.04-.016-.018-.161-.294 7.08-3.942Zm-26.867 56.36.176-.074.154.268-2.624 1.459-.176-.312.122-.026.09-.08c.322-.201.401-.624.213-1.022l-5.108-8.446 1.568 11.719-.364.207c-1.818-1.417-3.668-2.871-5.469-4.27l-3.521-2.759 4.132 8.062c.289.551.867.753 1.407.49l.274-.127.154.267-2.349 1.315-.154-.268.146-.127c.339-.2.422-.691.204-1.143l-4.521-8.8c-.225-.349-.636-.488-.971-.34l-.176.074-.154-.268 1.619-.901.024.027 9.114 7.209-1.63-11.44 1.717-.955.154.267-.128.112c-.349.225-.404.675-.141 1.104l5.165 8.381c.258.369.694.518 1.047.354l.006.043Zm-2.707-12.139 1.78-.993.161.276-.045.04a.303.303 0 0 0-.194.218.44.44 0 0 0 .008.267l.051.132 5.198 9.299c.069.134.158.217.25.249a.427.427 0 0 0 .23.024l.167-.066.153.268-1.779.993-.161-.277.045-.039s.061-.022.098-.054c.009-.008.054-.047.091-.208a.506.506 0 0 0-.063-.347l-5.199-9.3c-.068-.133-.157-.216-.249-.248a.427.427 0 0 0-.23-.024l-.167.066-.154-.268.009-.008Zm11.751-6.547 1.992-1.116.154.267-.145.128c-.366.223-.44.69-.186 1.127l5.367 9.602-.498.275c-2.848-1.384-5.746-2.789-8.544-4.153-1.171-.568-2.35-1.145-3.521-1.713l4.761 8.524c.245.446.688.621 1.067.45l.177-.074.153.268-1.992 1.116-.154-.268.145-.127c.366-.224.44-.69.186-1.127l-4.754-8.499c-.237-.436-.688-.621-1.06-.44l-.176.074-.223-.255 1.744-.979 11.35 5.526-4.446-7.963c-.245-.445-.688-.621-1.067-.449l-.177.073-.153-.267Zm15.103-4.64c.634.523 1.212 1.239 1.703 2.112.491.873.803 1.743.926 2.6.132.866.088 1.66-.095 2.367a5.531 5.531 0 0 1-.966 1.923 5.25 5.25 0 0 1-1.609 1.39l-4.581 2.561-.162-.277.046-.04s.061-.021.098-.053c.009-.008.054-.048.09-.208a.45.45 0 0 0-.062-.347l-5.207-9.309a.485.485 0 0 0-.217-.212c-.109-.033-.17-.029-.204-.031-.052.013-.096.036-.141.059l-.045.04-.177-.312 4.581-2.561a6.459 6.459 0 0 1 1.985-.722 5.632 5.632 0 0 1 2.038.018c.685.141 1.357.47 1.999 1.002Zm-2.284-.318c-1.153-.455-2.359-.349-3.569.323l-3.202 1.788 5.65 10.111c.152-.084.524-.282 1.129-.618.694-.381 1.396-.771 2.09-1.152 1.183-.665 1.876-1.69 2.026-3.059.15-1.37-.214-2.869-1.089-4.419-.843-1.514-1.858-2.509-3.027-2.965l-.008-.009Z"/>
</svg>
