<svg xmlns="http://www.w3.org/2000/svg" width="433" height="209" fill="none" viewBox="0 0 433 209">
  <path fill="#ECA9A1" d="M0 0h433v209H0z"/>
  <g clip-path="url(#a)">
    <path fill="#CE7A23" d="M251.095 52h-69.19C153.238 52 130 75.281 130 104s23.238 52 51.905 52h69.19C279.762 156 303 132.719 303 104s-23.238-52-51.905-52Z"/>
    <path fill="#231F20" d="M234.877 73.86h-36.754v1.178h36.754v-1.177Zm-46.229 49.165-.168.596-.045.168-1.007 3.731h-13.137l7.842-11.787c3.937-5.305 2.991-8.27 2.075-9.57-1.144-1.636-3.524-2.354-5.63-1.697-2.059.642-3.326 2.385-3.356 4.693v.153l-.732-.107v-.122c-.016-2.156.579-3.837 1.8-4.999 1.922-1.834 4.669-1.697 4.791-1.697 3.555 0 6.362 2.614 6.362 5.962 0 2.095-1.251 3.776-3.54 6.849-.274.367-.564.764-.869 1.177-.84 1.162-2.625 3.761-5.295 7.735l-1.052 1.575 7.903-.076c1.083 0 2.517-.505 3.326-1.927l.046-.061h.289l.412-.596h-.015Zm24.93-7.552c0 4.678-1.236 12.505-9.505 12.505s-9.551-7.842-9.551-12.505c0-11.251 5.981-12.933 9.551-12.933 3.57 0 9.505 1.682 9.505 12.933Zm-16.691 0c0 4.449.931 11.924 7.186 11.924 3.25 0 7.14-2.063 7.14-11.924 0-11.144-4.989-12.352-7.14-12.352-6.484 0-7.186 8.637-7.186 12.352Zm36.876 7.552-.167.596-.046.168-1.007 3.731h-13.137l7.843-11.787c3.936-5.305 2.99-8.27 2.075-9.57-1.145-1.636-3.525-2.354-5.63-1.697-2.06.642-3.326 2.385-3.357 4.693v.153l-.732-.107v-.122c-.015-2.156.58-3.837 1.8-4.999 1.923-1.834 4.669-1.697 4.791-1.697 3.555 0 6.362 2.614 6.362 5.962 0 2.095-1.251 3.776-3.54 6.849-.274.367-.564.764-.869 1.177-.839 1.162-2.624 3.761-5.294 7.735l-1.053 1.575 7.903-.076c1.083 0 2.517-.505 3.326-1.927l.046-.061h.29l.412-.596h-.016Zm24.931-7.552c0 4.678-1.236 12.505-9.506 12.505-8.269 0-9.551-7.842-9.551-12.505 0-11.251 5.981-12.933 9.551-12.933 3.571 0 9.506 1.682 9.506 12.933Zm-16.692 0c0 4.449.931 11.924 7.186 11.924 3.25 0 7.141-2.063 7.141-11.924 0-11.144-4.989-12.352-7.141-12.352-6.484 0-7.186 8.637-7.186 12.352Zm2.075-26.783a.593.593 0 0 0-.488-.138.645.645 0 0 0-.458.26c-.976 1.208-1.922 2.08-2.838 2.645-.9.55-1.708.902-2.38 1.04-.686.137-1.174.198-1.449.183-.397 0-.793-.092-1.175-.26-.397-.184-.671-.505-.839-1.01-.107-.335-.122-.748-.031-1.207.702-.153 1.511-.397 2.411-.703.9-.306 1.678-.719 2.334-1.254.641-.52.916-1.192.809-1.987a1.289 1.289 0 0 0-.748-.948 2.473 2.473 0 0 0-1.296-.199 4.682 4.682 0 0 0-2.091.857c-1.083.78-1.861 1.712-2.349 2.782-.138.29-.229.566-.305.856-2.808 1.697-5.142 2.675-6.973 2.935-1.846.26-3.097 0-3.723-.718-.656-.841-.488-1.911.504-3.226.641-.764 1.327-1.376 2.075-1.82.747-.443 1.419-.733 2.029-.901.61-.168 1.038-.214 1.282-.168a.22.22 0 0 1 .106.03c-.045.138-.32.428-.854.887-.519.459-1.495 1.116-2.899 1.972a.69.69 0 0 0-.32.428.646.646 0 0 0 .076.505.625.625 0 0 0 .412.32.69.69 0 0 0 .519-.076c1.358-.81 2.365-1.498 3.021-2.033.656-.55 1.068-.994 1.251-1.36.183-.352.244-.658.198-.903-.076-.55-.473-.902-1.22-1.085-.412-.107-1.007-.061-1.786.122-.778.184-1.602.535-2.486 1.07-.885.52-1.709 1.239-2.472 2.156-.122.153-.229.32-.336.474a28.266 28.266 0 0 1-1.48 1.62c-.488.49-.915.902-1.281 1.239a10.66 10.66 0 0 1-.977.794c-.274.2-.503.352-.702.444a4.603 4.603 0 0 1-.457.198.913.913 0 0 1-.351.031c-.046-.015-.076-.061-.107-.122s-.046-.138-.061-.214c-.015-.077-.031-.153-.031-.199.061-.719.229-1.452.473-2.217.26-.764.534-1.498.824-2.201.351-.871.626-1.651.839-2.37a.707.707 0 0 0-.061-.504.816.816 0 0 0-.381-.336 1.19 1.19 0 0 0-.244-.03c-.092 0-.229.06-.412.167-.183.107-.458.29-.793.566-.351.275-.809.657-1.374 1.162-.564.504-1.296 1.146-2.166 1.941-.87.795-1.922 1.758-3.158 2.92a29.473 29.473 0 0 1 3.066-5.641.68.68 0 0 0 .107-.504.691.691 0 0 0-.274-.444c-.153-.107-.336-.137-.519-.107a.622.622 0 0 0-.427.275c-1.251 1.774-2.258 3.654-3.082 5.596-.794.565-1.77 1.1-2.945 1.605-1.51.657-2.883.932-4.089.825-.595-.076-1.022-.305-1.266-.688-.092-.122-.168-.367-.198-.734-.046-.366.045-.917.259-1.65.213-.734.641-1.682 1.266-2.875a.629.629 0 0 0 .061-.52.788.788 0 0 0-.32-.412.675.675 0 0 0-.931.275 18.4 18.4 0 0 0-1.037 2.186h-.046a508.44 508.44 0 0 0-7.507 2.721 4.873 4.873 0 0 0-.335-.626 11.358 11.358 0 0 0-.717-.963 8.029 8.029 0 0 1-.717-.994 2.63 2.63 0 0 1-.336-.856 1.26 1.26 0 0 1 .107-.856c.107-.169.244-.321.427-.444a5.4 5.4 0 0 1 .549-.336 9.589 9.589 0 0 1 4.348-1.085 4.85 4.85 0 0 1-1.19.611.643.643 0 0 0-.381.336.679.679 0 0 0-.015.52c.076.168.198.29.366.367a.58.58 0 0 0 .503 0 6.601 6.601 0 0 0 2.06-1.192c.061-.046.137-.138.244-.245.092-.107.153-.26.199-.443.045-.306-.016-.566-.214-.78a1.367 1.367 0 0 0-.671-.413c-.244-.06-.428-.092-.534-.076a11.113 11.113 0 0 0-5.34 1.238 5.083 5.083 0 0 0-.839.535 2.708 2.708 0 0 0-.702.795c-.458.887-.382 1.88.229 2.966.259.428.549.81.854 1.177.229.29.442.566.625.856.062.092.138.23.229.398-3.494 1.345-5.401 2.277-5.736 2.782-.473.657-.55 1.253-.214 1.743.229.336.595.504 1.068.535.153 0 .305 0 .473-.016a9.734 9.734 0 0 0 4.501-1.727c.244-.153.488-.367.732-.612a2.89 2.89 0 0 0 .595-.901c.122-.322.168-.658.153-.994 1.709-.658 3.967-1.468 6.728-2.446-.274 1.223-.198 2.186.26 2.89.473.733 1.22 1.161 2.227 1.298.229.031.458.046.702.046.915 0 1.892-.183 2.929-.535a17.18 17.18 0 0 0 2.808-1.238c-.107.321-.229.642-.321.963-.076.321.031.581.305.764a.81.81 0 0 0 .367.092c.167 0 .32-.076.442-.199 3.006-2.828 5.538-5.151 7.628-6.986 0 .016-.015.03-.03.046 0 0 0 .03-.015.046-.305.749-.58 1.529-.855 2.354a11.045 11.045 0 0 0-.518 2.477c-.016.275.03.596.167.993.138.383.428.688.855.902.274.153.686.168 1.205.046.534-.122 1.251-.55 2.182-1.269.458-.351.976-.84 1.556-1.421.076.596.305 1.13.717 1.605.336.367.809.672 1.389.917.579.23 1.296.352 2.136.352 1.083 0 2.364-.23 3.86-.734 1.251-.428 2.67-1.1 4.211-2.003.03.184.045.382.106.566.458 1.406 1.541 2.14 3.265 2.232h.138c.29 0 .702-.046 1.236-.123.534-.091 1.144-.275 1.846-.565.686-.29 1.434-.734 2.212-1.315.778-.58 1.571-1.376 2.365-2.37.122-.167.168-.336.137-.504-.015-.183-.107-.32-.259-.459l-.031-.045Zm-7.491-1.62a3.217 3.217 0 0 1 1.495-.597c.046 0 .107-.015.137-.015.184 0 .321.03.397.076.015.122-.046.275-.198.49-.153.213-.488.443-1.007.718-.519.275-1.297.55-2.334.856.366-.55.869-1.055 1.51-1.529Zm-46.794 6.65a8.485 8.485 0 0 1-3.86 1.497h-.213c.015-.046.061-.107.107-.183.061-.107.442-.336 1.113-.673.687-.336 1.908-.856 3.677-1.544-.122.275-.396.581-.854.902h.03Z"/>
    <path fill="#231F20" d="M201.22 84.486a.657.657 0 0 0 .488-.214.692.692 0 0 0 .214-.505c0-.199-.076-.352-.214-.504a.626.626 0 0 0-.488-.214.716.716 0 0 0-.503.214.692.692 0 0 0-.214.504.66.66 0 0 0 .214.505.657.657 0 0 0 .503.214Z"/>
  </g>
  <defs>
    <clipPath id="a">
      <path fill="#fff" d="M130 52h173v104H130z"/>
    </clipPath>
  </defs>
</svg>
