<svg xmlns="http://www.w3.org/2000/svg" width="326" height="260" fill="none" viewBox="0 0 326 260">
  <path fill="#E2D6E6" d="M0 0h326v260H0V0Z"/>
  <g clip-path="url(#a)">
    <path fill="#EFA693" d="M162.506 225.013c50.538 0 91.507-40.969 91.507-91.507 0-50.537-40.969-91.506-91.507-91.506C111.969 42 71 82.969 71 133.506c0 50.538 40.969 91.507 91.506 91.507Z"/>
    <path fill="#231F20" d="m145.153 58.824 9.322-1.562.258 1.536-.129-.103a3.428 3.428 0 0 0-.852-.478c-.039 0-.064-.026-.09-.026-.026 0-.039 0-.039-.013h-.026a3.796 3.796 0 0 0-.942-.129 9.55 9.55 0 0 0-1.447.104l-.774.129 1.782 10.665.038.232c.026.142.078.259.155.323.078.065.142.09.207.09h.168l.051.297-2.001.336-.052-.31h.065s.065-.026.116-.038c.013 0 .065-.04.155-.155.065-.09.078-.207.052-.349l-.039-.232-1.782-10.666-.762.142c-.206.04-.413.09-.594.13h-.038c-.207.051-.401.116-.581.167h-.026c-.039.013-.078.026-.129.052h-.052c-.181.09-.361.168-.516.245l-.104.065s-.026.013-.038.026c-.427.232-.762.49-1.02.787l-.091.104-.219-1.382-.026.013Zm24.081 9.904s.051.064.051.116c0 .065-.051.116-.116.142-.31.22-.697.439-1.42.413-1.059-.026-1.434-.633-2.182-1.975l-1.382-2.492c-.788-1.42-.852-1.46-1.24-1.472-.219 0-1.058-.168-1.394-.246l-.155 5.126c0 .155.026.272.09.349.065.077.13.116.194.13l.168.025v.31l-2.053-.065v-.31h.194c.013 0 .064-.025.18-.129.078-.077.117-.18.117-.336l.309-10.6c0-.155-.025-.258-.09-.336a.34.34 0 0 0-.194-.129l-.167-.026v-.31h.077c.478.013.955.04 1.407.052l2.97.09h.013c2.014.09 3.318 1.434 3.267 3.357-.065 2.08-1.692 2.996-3.228 3.164.155.206.413.633.49.749l1.589 2.892c.038.065.077.142.116.22.31.58.813 1.549 1.536 1.575.168 0 .388-.116.556-.207a.427.427 0 0 0 .077-.052c.116-.064.194-.025.22 0v-.025Zm-7.541-10.42-.116 4.584c.374.116 1.485.322 2.156.348h.065c1.911.039 2.905-.93 2.956-2.892.013-.659-.025-1.601-.619-2.234-.452-.478-1.162-.723-2.144-.736l-1.691-.039c-.478-.012-.568.181-.594.736v.22l-.013.013Zm22.247 8.018c-.813 3.602-3.899 5.655-7.321 4.88-2.892-.658-5.449-3.589-4.506-7.747.813-3.615 3.899-5.668 7.334-4.893h.013c2.866.658 5.41 3.602 4.467 7.76h.013Zm-10.756-2.634c-1.02 4.48 1.227 6.663 3.461 7.166 2.879.646 5.345-1.265 6.133-4.79 1.02-4.494-1.214-6.689-3.435-7.192-2.879-.659-5.358 1.278-6.159 4.803v.013Zm23.164 4.778c-.645 1.433-2.337 2.517-5.126 1.252a12.416 12.416 0 0 1-1.975-1.175l-2.092 4.61c-.064.141-.077.258-.051.348.025.09.064.168.116.194l.155.09-.129.284-1.86-.84.129-.283.065.026s.064.025.103.038c.013 0 .065 0 .22-.051.103-.04.18-.13.245-.259l4.39-9.67c.065-.143.078-.259.052-.35-.026-.09-.065-.167-.129-.193l-.142-.09.129-.284.064.026c.439.193.865.4 1.279.593l2.737 1.24c2.995 1.356 2.169 3.796 1.846 4.506l-.026-.013Zm-6.959-.246c.426.336 1.123.865 2.066 1.291 2.324 1.046 3.473-.568 3.951-1.627.568-1.252.503-2.892-.956-3.55l-2.246-1.008c-.349-.167-.53-.09-.71.22l-2.118 4.674h.013Zm13.338.194 1.704 1.097-.168.258-.051-.038a.33.33 0 0 0-.284-.052.422.422 0 0 0-.233.142l-.09.103-5.707 8.922c-.078.13-.116.246-.103.336a.336.336 0 0 0 .09.207l.129.116-.168.258-1.704-1.097.168-.258.051.038s.065.026.104.052c.013 0 .064.013.219-.013.103-.026.194-.09.284-.22l5.707-8.922c.078-.129.116-.245.104-.335a.384.384 0 0 0-.091-.207l-.129-.116.168-.258v-.013Zm14.294 12.202v.038l-1.085 1.227v-.194c.052-.555-.026-1.214-.233-1.885v-.039a6.922 6.922 0 0 0-.374-.981l-.039-.078-.051-.103a5.886 5.886 0 0 0-1.304-1.73c-1.808-1.614-4.855-1.872-7.606 1.214-1.407 1.562-2.143 3.292-2.053 4.868.065 1.226.607 2.31 1.614 3.202.995.89 2.802 1.446 4.313 1.317.052 0 .116.025.142.077a.18.18 0 0 1 .013.18.158.158 0 0 1-.142.091c-1.937.104-3.422-.374-4.687-1.498-1.136-1.02-1.872-2.608-1.963-4.222-.064-1.175.181-2.918 1.692-4.596 2.569-2.88 6.275-3.19 8.986-.75.517.466.969.97 1.369 1.499 0 0 0 .025.026.051.013.026.039.052.064.09.259.362.504.737.698 1.124v.039c.168.258.297.49.413.71.064.116.116.232.168.349h.039Zm.219 18.463-.194.142-1.433-1.936.194-.142c.4.451.71.18.968-.233l1.782-2.776-2.802-3.77-2.983.93h-.038c-.168.064-.762.322-.504 1.007l-.206.154-.969-1.304.258-.193c.194.206.194.335.995.142l10.148-3.1.659-1.02.671.905-.116.116-6.236 9.955c-.233.439-.478.633-.194 1.123Zm1.459-5.19 2.569-3.977v-.026l.982-1.55-6.224 1.924 2.686 3.616-.013.013Zm3.835 13.144.116.065-1.214.606-2.944-5.849.284-.142.026.065v.013l.013.026s.026.038.039.051c.065.091.142.142.284.116.039 0 .065 0 .103-.025h.013c.065-.026.142-.052.22-.091l6.895-3.46 2.479-1.266a.533.533 0 0 0 .258-.245c.039-.09.052-.168.026-.232l-.065-.168.271-.142.917 1.833-.284.142-.026-.051a.354.354 0 0 0-.219-.194.482.482 0 0 0-.271 0l-.142.052-2.415 1.213-7.463 3.745.994 1.975c.194.388.504.788.852 1.111l.026.026s.013 0 .026.013l.052.038s.077.065.129.104c.013.013.039.025.051.038.233.181.569.439.917.62l.052.013Zm4.919 23.835v.194l-.31.039-.413-2.97.362-.051-.026.129.039.116c.077.361.439.594.878.568l9.658-1.704-11.427-2.776-.065-.414c1.963-1.175 3.977-2.375 5.927-3.538 1.265-.761 2.543-1.51 3.809-2.272l-8.961.93c-.62.064-1.007.542-.969 1.136l.026.297-.31.039-.374-2.647.31-.039.051.181c.091.387.504.632.995.594l9.787-1.02c.413-.091.684-.414.658-.775v-.194l.31-.039.258 1.821-.038.026-9.968 5.849 11.194 2.621.272 1.937-.31.039-.052-.168c-.09-.401-.491-.62-.981-.53l-9.633 1.769c-.439.104-.736.452-.71.84l.013.012Zm4.274 16.089c-3.68-.388-6.081-3.203-5.707-6.702.31-2.944 2.931-5.836 7.166-5.384 3.68.387 6.095 3.215 5.72 6.714-.323 2.944-2.944 5.823-7.179 5.372Zm1.343-10.988c-4.571-.478-6.482 2.001-6.714 4.273-.31 2.931 1.885 5.165 5.474 5.54 4.597.49 6.508-1.989 6.74-4.261.31-2.944-1.898-5.178-5.5-5.552Zm-6.391 26.74c-3.487-1.24-5.152-4.545-3.977-7.85.994-2.789 4.209-4.984 8.225-3.551 3.486 1.239 5.164 4.545 3.989 7.863-.994 2.789-4.222 4.958-8.225 3.525l-.012.013Zm3.886-10.355c-4.325-1.537-6.766.426-7.528 2.582-.994 2.776.62 5.449 4.016 6.663 4.351 1.549 6.779-.414 7.553-2.557.995-2.776-.632-5.475-4.041-6.688Zm-8.832 24.442c-.8-.155-1.64-.504-2.479-1.046-.839-.529-1.524-1.149-2.04-1.846-.516-.698-.865-1.408-1.033-2.118a5.432 5.432 0 0 1-.064-2.143 5.41 5.41 0 0 1 .748-1.976l2.802-4.416.271.168-.038.052s-.026.064-.052.103c0 .013-.013.065.013.22.026.103.103.193.219.271l8.948 5.681c.104.065.207.09.297.078.117-.026.168-.052.194-.078.039-.039.065-.077.103-.116l.039-.052.297.181-2.802 4.416c-.4.62-.865 1.149-1.394 1.575a5.223 5.223 0 0 1-1.795.943c-.659.206-1.407.232-2.221.077l-.013.026Zm2.144-.801c1.226-.142 2.22-.813 2.969-1.975l1.95-3.073-9.723-6.172-.684 1.072c-.426.671-.852 1.33-1.278 2.001-.723 1.149-.84 2.363-.323 3.641.516 1.278 1.536 2.402 3.047 3.357 1.446.917 2.815 1.317 4.042 1.162v-.013Zm-22.932 16.592c-2.285-2.918-1.924-6.598.839-8.767 2.337-1.821 6.224-1.95 8.858 1.394 2.285 2.919 1.924 6.611-.839 8.781-2.324 1.82-6.211 1.936-8.832-1.421l-.026.013Zm8.832-6.675c-2.841-3.616-5.94-3.254-7.747-1.847-2.324 1.821-2.389 4.946-.168 7.786 2.84 3.628 5.952 3.28 7.747 1.872 2.324-1.82 2.389-4.958.168-7.811Zm-17.793 18.231-2.066.956-.129-.284.168-.104c.362-.206.478-.658.258-1.123l-4.609-9.916.516-.233a2175.75 2175.75 0 0 0 8.173 4.739c1.124.646 2.247 1.304 3.37 1.95l-4.08-8.793c-.206-.452-.632-.672-1.02-.517l-.193.065-.13-.284 2.066-.956.129.284-.167.104c-.362.206-.478.658-.259 1.11l4.08 8.78c.207.452.633.671 1.021.517l.18-.052.194.271-1.795.826-10.846-6.314 3.822 8.212c.207.452.633.672 1.02.517l.181-.065.129.284-.013.026Zm-11.375-8.638a.528.528 0 0 1 .026-.374.441.441 0 0 1 .271-.233.386.386 0 0 1 .349.052.492.492 0 0 1 .232.297.496.496 0 0 1-.026.362.42.42 0 0 1-.258.232.417.417 0 0 1-.349-.039.489.489 0 0 1-.232-.297h-.013Zm.013 0c.039.129.103.22.219.284.117.065.22.078.336.039a.43.43 0 0 0 .258-.219.496.496 0 0 0 .026-.362.483.483 0 0 0-.219-.284.446.446 0 0 0-.336-.052.432.432 0 0 0-.258.22.437.437 0 0 0-.026.361v.013Zm.013 0a.46.46 0 0 1 .026-.348.41.41 0 0 1 .245-.22c.116-.039.219-.013.323.052.103.064.18.155.206.271a.467.467 0 0 1-.026.349.33.33 0 0 1-.245.206.36.36 0 0 1-.323-.038.436.436 0 0 1-.206-.272Zm-1.498 12.822-9.335 1.472-.246-1.537.13.104c.232.18.477.335.748.439.039.012.065.025.091.038.039.013.064.026.09.039.026 0 .039 0 .039.013h.026c.245.077.568.116.942.142.452.013.943-.013 1.446-.09l.775-.117-1.678-10.678-.039-.232c-.026-.142-.078-.258-.155-.323-.078-.065-.142-.09-.207-.09h-.168l-.051-.297 2.001-.31.052.31h-.065s-.064.026-.116.038c-.013 0-.065.039-.155.155-.064.091-.077.207-.064.349l.038.232 1.679 10.679.762-.143c.206-.038.413-.077.594-.129h.038c.207-.051.401-.103.581-.167h.026c.039 0 .078-.026.129-.052h.052c.181-.078.361-.155.516-.245l.104-.052s.026-.013.038-.026a3.836 3.836 0 0 0 1.033-.775l.091-.103.206 1.382.052-.026Zm-23.952-10.136s-.051-.065-.051-.116c0-.065.051-.117.116-.142.31-.22.71-.426 1.42-.401 1.059.039 1.434.646 2.169 1.989l1.356 2.518c.775 1.42.84 1.459 1.227 1.472.232 0 1.046.167 1.394.258l.194-5.126c0-.155-.026-.258-.09-.349-.065-.077-.129-.129-.194-.129l-.168-.026v-.31l2.053.078v.31h-.194c-.012 0-.064.026-.18.129-.078.077-.117.181-.129.336l-.401 10.6c0 .155.026.271.091.349a.343.343 0 0 0 .193.129l.168.026v.31h-.077a46.679 46.679 0 0 1-1.408-.065l-2.969-.116h-.013c-2.015-.103-3.319-1.459-3.241-3.383.077-2.079 1.717-2.983 3.266-3.138a7.542 7.542 0 0 1-.477-.761l-1.55-2.906c-.038-.064-.077-.142-.116-.219-.297-.581-.8-1.562-1.523-1.588-.168 0-.388.116-.556.206-.026.013-.064.039-.09.052-.116.052-.194.026-.22 0v.013Zm7.438 10.497.155-4.583c-.375-.117-1.485-.336-2.157-.375h-.064c-1.911-.064-2.905.904-2.983 2.867-.026.658 0 1.601.607 2.233.452.478 1.162.723 2.143.762l1.692.052c.478.013.568-.181.594-.736v-.22h.013Zm-22.209-8.238c.852-3.602 3.951-5.629 7.373-4.816 2.879.685 5.41 3.641 4.429 7.799-.852 3.603-3.964 5.63-7.386 4.829h-.013c-2.866-.684-5.384-3.654-4.403-7.799v-.013Zm10.73 2.725c1.059-4.481-1.162-6.676-3.396-7.205-2.866-.684-5.358 1.227-6.185 4.726-1.058 4.493 1.15 6.701 3.37 7.23 2.88.685 5.372-1.226 6.211-4.751Zm-23.099-5.01c.671-1.433 2.363-2.492 5.139-1.201.891.414 1.614.943 1.962 1.201l2.144-4.584c.064-.142.077-.258.051-.348-.025-.091-.064-.168-.116-.194l-.142-.09.129-.284 1.86.865-.13.284-.064-.026s-.065-.026-.103-.039c-.013 0-.078 0-.22.039-.103.039-.181.116-.245.258l-4.494 9.633c-.064.142-.077.258-.051.348.026.091.064.168.116.194l.142.09-.129.284-.065-.026c-.439-.206-.865-.413-1.265-.606l-2.724-1.266c-2.97-1.394-2.131-3.822-1.795-4.519v-.013Zm4.777 4.958 2.169-4.648c-.426-.336-1.11-.865-2.053-1.304-2.311-1.072-3.473.529-3.964 1.588-.581 1.253-.542 2.892.917 3.564l2.234 1.02c.349.168.529.09.71-.22h-.013Zm-11.143-4.945-1.704-1.11.168-.259.051.039a.33.33 0 0 0 .284.052.507.507 0 0 0 .233-.129l.09-.104 5.785-8.87c.077-.129.116-.233.103-.336-.013-.103-.039-.168-.09-.207l-.129-.116.167-.258 1.705 1.11-.168.259-.052-.039s-.064-.039-.103-.052c-.013 0-.065-.013-.22 0-.103.026-.193.091-.284.22l-5.784 8.87c-.078.129-.116.233-.103.336a.34.34 0 0 0 .09.207l.129.116-.168.258v.013Zm-14.19-12.357v-.038l1.098-1.214v.194c-.065.555.012 1.213.206 1.898v.038c.103.336.22.672.362.982l.038.077.052.103c.336.672.775 1.279 1.291 1.744 1.795 1.626 4.842 1.91 7.631-1.137 1.42-1.549 2.169-3.266 2.105-4.855-.052-1.226-.581-2.311-1.575-3.228-.982-.903-2.789-1.472-4.3-1.355a.178.178 0 0 1-.142-.078.181.181 0 0 1-.013-.181.16.16 0 0 1 .142-.09c1.937-.09 3.422.4 4.674 1.549 1.136 1.033 1.846 2.622 1.924 4.248.052 1.175-.207 2.919-1.743 4.584-2.608 2.854-6.301 3.125-9 .659a9.98 9.98 0 0 1-1.356-1.511s0-.026-.025-.052c-.013-.025-.039-.051-.065-.09a8.424 8.424 0 0 1-.684-1.123v-.039a5.89 5.89 0 0 1-.4-.71 3.966 3.966 0 0 1-.168-.349l-.052-.026Zm-.026-18.451.194-.142 1.42 1.937-.194.142c-.4-.452-.71-.181-.968.232l-1.795 2.764 2.763 3.796 2.996-.904h.039c.168-.065.762-.31.516-1.007l.207-.142.955 1.304-.258.193c-.194-.206-.181-.335-.994-.155l-10.175 2.996-.671 1.02-.659-.917.117-.116 6.313-9.89c.233-.439.491-.62.207-1.124l-.013.013Zm-1.511 5.178-2.595 3.938v.026l-.994 1.536 6.236-1.872-2.659-3.641.012.013Zm-3.705-13.209-.117-.064 1.214-.594 2.88 5.887-.285.142-.025-.064v-.013s-.013-.026-.026-.026c0-.013-.026-.039-.026-.052-.065-.09-.142-.142-.271-.129-.039 0-.065 0-.116.026-.065.026-.142.052-.22.091l-6.933 3.395-2.493 1.24c-.129.064-.219.142-.258.245-.038.091-.051.168-.026.233l.052.168-.284.142-.904-1.834.284-.142.026.065c.052.103.116.167.22.193a.479.479 0 0 0 .27 0l.143-.051 2.427-1.188 7.502-3.667-.968-1.989a4.064 4.064 0 0 0-.84-1.123l-.026-.026s-.012 0-.025-.013l-.052-.038s-.077-.065-.129-.104c-.013-.013-.039-.026-.052-.039a5.375 5.375 0 0 0-.916-.619l-.026-.052Zm-4.674-23.9v-.193l.31-.039.387 2.97-.362.051.026-.129-.026-.116c-.077-.362-.439-.594-.865-.568l-9.684 1.588 11.402 2.892.051.413a943.247 943.247 0 0 1-5.965 3.474c-1.278.749-2.557 1.485-3.835 2.234l8.974-.84c.62-.064 1.02-.529.968-1.123v-.297l.297-.039.349 2.66-.31.039-.052-.181c-.077-.387-.503-.633-.994-.607l-9.787.917c-.413.09-.684.4-.671.762v.193l-.31.039-.233-1.82.039-.026 10.032-5.746-11.168-2.737-.258-1.937.31-.039.038.168c.09.4.49.62.981.542l9.645-1.665c.44-.104.737-.452.724-.84h-.013Zm-4.133-16.075c3.68.426 6.056 3.267 5.643 6.753-.335 2.944-2.982 5.797-7.218 5.319-3.68-.426-6.055-3.266-5.655-6.765.349-2.944 2.996-5.785 7.23-5.294v-.013Zm-1.445 10.975c4.57.529 6.494-1.937 6.752-4.209.336-2.931-1.846-5.178-5.422-5.591-4.584-.53-6.52 1.924-6.78 4.196-.335 2.931 1.847 5.191 5.45 5.604Zm6.662-26.715c3.474 1.279 5.113 4.597 3.9 7.89-1.02 2.776-4.261 4.945-8.264 3.473-3.473-1.278-5.113-4.597-3.912-7.902 1.02-2.776 4.26-4.92 8.263-3.448l.013-.013Zm-3.99 10.33c4.313 1.588 6.766-.362 7.554-2.505 1.02-2.763-.568-5.462-3.951-6.701-4.325-1.588-6.792.348-7.58 2.479-1.02 2.776.582 5.474 3.978 6.727Zm9.065-24.365c.813.168 1.639.517 2.479 1.072.826.542 1.51 1.162 2.027 1.86.516.697.852 1.42 1.007 2.13.155.71.168 1.433.039 2.143a5.248 5.248 0 0 1-.775 1.976l-2.854 4.39-.258-.168.039-.052s.026-.064.052-.103c0-.013.012-.065-.013-.22-.026-.103-.091-.193-.22-.284l-8.896-5.771a.45.45 0 0 0-.297-.078c-.116.013-.168.052-.194.065-.038.038-.064.077-.103.116l-.039.052-.284-.194 2.84-4.39c.401-.62.879-1.15 1.408-1.563a5.122 5.122 0 0 1 1.808-.93c.658-.193 1.407-.219 2.221-.05h.013Zm-2.157.775c-1.226.13-2.234.788-2.995 1.95l-1.989 3.06 9.658 6.275c.091-.142.323-.504.698-1.072.439-.658.865-1.33 1.304-1.988.736-1.136.865-2.363.361-3.641-.503-1.279-1.51-2.415-3.008-3.396-1.446-.943-2.802-1.343-4.042-1.201l.013.013Zm23.113-16.334c2.246 2.931 1.859 6.611-.93 8.742-2.35 1.794-6.249 1.885-8.832-1.498-2.246-2.931-1.859-6.624.93-8.767h.013c2.337-1.795 6.223-1.86 8.819 1.523Zm-8.897 6.572c2.789 3.642 5.901 3.319 7.722 1.937 2.337-1.794 2.44-4.92.245-7.773-2.802-3.667-5.914-3.344-7.721-1.962-2.337 1.794-2.441 4.932-.246 7.798Zm17.961-18.063 2.079-.943.129.284-.168.104c-.362.206-.478.658-.271 1.11l4.506 9.955-.517.233c-2.711-1.614-5.461-3.241-8.121-4.83-1.11-.658-2.234-1.317-3.344-1.988l4.002 8.832c.207.452.62.671 1.02.53l.194-.052.129.284-2.079.942-.129-.284.168-.103c.375-.207.478-.659.271-1.11l-3.989-8.82c-.207-.451-.62-.67-1.02-.529l-.181.052-.181-.284 1.795-.814 10.781 6.43-3.731-8.25c-.207-.452-.62-.672-1.02-.53l-.181.052-.129-.284-.013.013Zm11.298 8.741a.475.475 0 0 1-.039.374.442.442 0 0 1-.271.233c-.116.039-.233.013-.349-.052a.46.46 0 0 1-.219-.297.444.444 0 0 1 .038-.361.454.454 0 0 1 .259-.233c.129-.038.232-.012.348.052a.473.473 0 0 1 .22.297l.013-.013Zm-.013 0a.448.448 0 0 0-.22-.284.437.437 0 0 0-.335-.052.431.431 0 0 0-.259.22.442.442 0 0 0-.025.361c.038.13.103.22.219.285a.39.39 0 0 0 .336.051.432.432 0 0 0 .258-.22.438.438 0 0 0 .026-.36Zm-.013 0a.456.456 0 0 1-.026.349.389.389 0 0 1-.245.206c-.116.039-.22.013-.323-.051a.43.43 0 0 1-.207-.284.475.475 0 0 1 .026-.349.354.354 0 0 1 .245-.207c.117-.038.22-.012.323.052a.483.483 0 0 1 .207.271v.013Zm17.663 108.421c-3.357-35.611 3.912-52.719 6.443-57.458v-5.19c-13.041 21.317-13.764 57.948-13.79 62.648h7.347Zm6.405-67.18 2.492-.22s-1.537 4.3-1.253 9.413l2.763-2.079s-3.086 3.925-.077 8.819l3.357-3.757s-2.105 3.473-2.079 6.443l2.079-2.815s-3.112 5.397 2.505 11.091c0 0 1.704 2.092 1.446 3.925 0 0 3.602-4.545 3.486-12.744l-3.189-1.846s1.278-.826 2.944.775c0 0 1.046-5.888-2.802-7.399h1.523s.401-10.484-8.237-13.454c0 0 6.52 3.964 6.21 28.974 0 0-1.743-25.694-6.998-29.09l-4.17 3.951v.013Zm3.189-4.739s-2.118 3.848-4.261 3.37l.064-2.479s-.335 2.737-3.073 2.944c-2.737.206-5.926.4-5.926.4l.129-3.848s-2.144 1.292-1.989 4.997l-7.024 3.022s-1.82-2.208-1.833-4.339c0 0-1.149 3.732.077 5.501 0 0-4.235 3.615-4.79 6.197 0 0-.801-17.56 15.92-19.07 0 0 5.72-.297 12.706 3.305Zm4.274 1.369 2.117-4.326s-1.782-.581-2.234-1.381l2.557.606.826-4.467-1.717-1.085 1.743.4.284-3.318-2.427-.439 2.427-.387.323-2.776-1.898-.465s2.104-.658 2.13-1.86c.039-1.2 1.098-2.388 1.098-2.388s-2.763.013-3.409 2.066l-.232-.697-3.706 3.047.439 1.278-.956-.697-.813 1.097s-.387.543.297 1.279l1.11 1.446s-1.252-.387-1.936-1.77c0 0-2.363 4.365-1.369 5.618l.813 1.162-1.2-.982v1.162s-3.022-4.622-6.753-6.74c-3.732-2.117-12.137-5.526-17.315-.723l4.519.878s.362-1.29 1.433-2.066l-.465 2.299 3.538 2.195s.413-1.885 2.763-3.009l-4.402-1.588s14.461 2.402 18.631 14.836c0 0-.464-9.142 6.805-18.025 0 0-4.054 4.274-6.314 18.309 0 0 1.459.284 3.28 1.536l.013-.025Z"/>
    <path fill="#231F20" d="M176.709 109.271s2.583 1.678 4.636 5.1c0 0 1.239-.194.49-1.485-.748-1.291-.142-3.409-.142-3.409l1.201 3.345s2.015-1.692 2.234-3.177c.22-1.485.387-2.285.646-2.698l-.22 2.84s3.164-1.885 5.681-2.001c0 0-.129-2.04-.736-3.254 0 0 1.511 2.118 1.989 3.202l1.937.168v-2.698s.865 1.846 1.2 2.982l1.162.388.259-.93s.232 1.265.904 1.433c0 0 3.421 1.743 4.105 2.479 0 0-5.539-12.653-17.121-7.566 0 0-2.905 1.123-8.212 5.281h-.013Zm-17.882-14.952s-1.924 2.04-1.408 4.3l.93 1.02s.465-1.24 1.64-1.627c0 0-1.382 1.717-.995 2.517l.401.427s1.136-2.583 3.228-3.125c0 0-2.557 3.589-2.144 4.7.413 1.11 2.531 1.149 2.725 1.175 1.936.258 4.583.71 9.296 3.86 0 0-4.351-8.599-13.686-13.247h.013Z"/>
  </g>
  <defs>
    <clipPath id="a">
      <path fill="#fff" d="M71 42h183v183H71z"/>
    </clipPath>
  </defs>
</svg>
