<svg xmlns="http://www.w3.org/2000/svg" width="824" height="191" fill="none" viewBox="0 0 824 191">
  <path fill="#F9F6EC" d="M0 0h824v191H0V0Z"/>
  <path fill="#000" d="m74.4 29.2.04-.12h2.32l-1.08 1.68c-.2.28-.44.64-.76 1.12l-.4.68-.24.36-6.44 10.32-.04 10.72v1c0 .36.08.64.2.8.16.16.32.28.44.28l.4.04v.72h-4.6v-.72h.12c.08 0 .16 0 .28-.04.04 0 .16-.04.4-.28.16-.2.24-.44.24-.8v-1.48h.04v-9.72l-8.72-13.2c-.44-.64-.68-.72-1.28-.72h-.16v-.76h3.4l1.6 2.36 7.28 10.92 4.76-7.84c.24-.4.52-.88.76-1.4l.04-.08.04-.08c.16-.4.32-.76.48-1.16v-.04c.24-.56.64-1.64.88-2.56Zm20.623-.8c6.68.04 13.8 5.24 13.8 14.96 0 8.4-5.8 14.52-13.76 14.52-6.76 0-13.88-5.24-13.88-14.92 0-8.44 5.8-14.56 13.8-14.56h.04Zm-.12.76c-6.72 0-11.24 5.56-11.24 13.76 0 10.48 6.08 14.16 11.28 14.16 6.68 0 11.2-5.48 11.2-13.68 0-10.52-6.04-14.24-11.24-14.24Zm39.438 5.92-.12-5.72h2.2l-.04.16c-.08.4-.16.96-.24 1.72 0 .12-.04.24-.04.32v.16l-.04.32c0 .28-.04.64-.04 1.04 0 0-.08.8-.16 2.04 0 .04-.04.08-.04.12v.04c-.16 2.16-.4 6.28-.4 9.92v1.12c0 3.84-1.2 6.92-3.48 8.96-1.88 1.68-4.44 2.6-7.24 2.6-5.16 0-10.36-3.12-10.36-10.08V31.16c0-.32-.08-.6-.24-.76-.16-.16-.28-.28-.44-.28l-.36-.04v-.72h3.52v18.2c0 7.04 4.36 9.56 8.08 9.56 6.68 0 9.72-5.64 9.72-10.88v-1.12c0-3-.16-6.44-.24-9.48l-.04-.56Zm42.477 19.48c.48 1.04.48 1.76 1.76 1.88V57h-5.48v-.52c1.36-.16 1.32-1.04.88-2.08l-2.64-7.04h-10.68l-2.36 6.72-.04.08c-.12.4-.48 1.84 1.16 2.28V57h-3.68v-.72c.6-.08.84.12 1.6-1.64l8.12-22.72-.96-2.56h2.56l.04.36 9.72 24.84Zm-15.96-7.8h10.24l-3.76-10.08-.04-.04-1.52-3.88-4.92 14Zm43.034 8.68c.28-.12.44-.08.52-.04.08.08.12.16.12.28 0 .12-.12.24-.24.32-.68.52-1.56 1.04-3.2 1.04-2.4 0-3.28-1.32-5.08-4.36l-3.32-5.56c-1.88-3.16-2-3.28-2.92-3.28-.52 0-2.4-.28-3.2-.44v11.64c0 .36.08.6.24.8.16.16.28.24.44.28l.4.04v.68h-4.64v-.68h.12c.08 0 .16-.04.28-.04.04 0 .12-.04.4-.32.16-.16.24-.4.24-.76V30.92c0-.32-.08-.6-.24-.76-.12-.16-.28-.28-.44-.28l-.36-.08v-.68h.12c1.12 0 2.16 0 3.2.04h6.76l.04.04c4.56 0 7.64 2.96 7.64 7.36 0 4.72-3.64 6.92-7.16 7.4.4.48 1 1.4 1.16 1.68l3.8 6.48c.08.12.2.32.28.48.76 1.32 1.96 3.48 3.6 3.48.4 0 .88-.28 1.24-.52.08-.04.12-.08.2-.12Zm-17.32-23.72v.52l.04 10.4c.88.28 3.4.64 4.92.68l.16-.04c4.32 0 6.52-2.28 6.52-6.76 0-1.48-.16-3.64-1.56-5.04-1.04-1.04-2.68-1.56-4.92-1.52l-3.88.04c-1.04 0-1.28.44-1.28 1.72Zm36.284 24.52c1.04-.12 3.56-.56 5.16-1.92l.24-.2V57h-19.48v-.68h.2s.04-.04.08-.04h.12c.04 0 .16-.08.4-.32.16-.16.24-.4.24-.76V31.12c0-.32-.08-.52-.2-.68-.2-.2-.32-.24-.36-.28-.12-.04-.24-.04-.36-.04h-.12v-.8h13.88c.6 0 2.16 0 3.4-.08h.04c.28 0 .52-.04.76-.04l.16-.04v2.8l-.24-.16c-.52-.32-1.16-.64-1.92-.92-.6-.24-1.4-.44-2.24-.56l-.2-.04c-.04 0-.08-.04-.12-.04h-.24c-.6-.08-1.28-.12-1.88-.12h-7.84v10.84h10.4v.56h-10.4v14.76h10.12l.16-.04h.24Zm53.975-2.08c.08 1.04.8 1.8 1.68 1.88l.44.04v.72h-6.84v-.84l.28.12.28-.04c.84-.08 1.48-.8 1.56-1.8l-.8-22.28-9.84 24.84h-.96c-2.04-4.8-4.08-9.72-6.08-14.44-1.32-3.12-2.6-6.2-3.92-9.32l-.72 20.48c-.04 1.4.88 2.44 2.24 2.52l.68.04v.72h-6.08v-.72l.4-.04c.88-.08 1.6-.96 1.68-2.08l.76-22.32c-.04-.96-.68-1.68-1.52-1.76l-.44-.04v-.72h4.2l.04.08 10.04 24.28 9.4-24.36h4.44v.72l-.36.04c-.92.08-1.56.92-1.52 2.04l.96 22.24Zm28.19.4c.48 1.04.48 1.76 1.76 1.88V57h-5.48v-.52c1.36-.16 1.32-1.04.88-2.08l-2.64-7.04h-10.68l-2.36 6.72-.04.08c-.12.4-.48 1.84 1.16 2.28V57h-3.68v-.72c.6-.08.84.12 1.6-1.64l8.12-22.72-.96-2.56h2.56l.04.36 9.72 24.84Zm-15.96-7.8h10.24l-3.76-10.08-.04-.04-1.52-3.88-4.92 14Zm42.754-14.36c1.2 1 2.16 2.44 2.84 4.16.68 1.76 1.04 3.8 1.04 6.04s-.36 4.32-1.04 6.16c-.72 1.88-1.68 3.4-2.84 4.56a12.37 12.37 0 0 1-4 2.76c-1.52.64-3.12.96-4.72.96h-11.88v-.72h.12c.08 0 .16 0 .28-.04 0 0 .12-.04.4-.28.16-.2.24-.44.24-.76V31.12c0-.28-.08-.52-.2-.64-.2-.2-.32-.28-.36-.28-.12-.04-.24-.08-.36-.08h-.12v-.76h11.88c1.68 0 3.24.24 4.72.76 1.44.48 2.8 1.24 4 2.28Zm1.4 10.2c0-3.88-.92-7-2.72-9.16-1.76-2.2-4.28-3.32-7.4-3.32h-8.32v26.2h2.92c1.8.04 3.6.04 5.4.04 3.08 0 5.56-1.28 7.36-3.8 1.84-2.56 2.76-5.92 2.76-9.96Zm21.594 13.64c1.04-.12 3.56-.56 5.16-1.92l.24-.2V57h-19.48v-.68h.2s.04-.04.08-.04h.12c.04 0 .16-.08.4-.32.16-.16.24-.4.24-.76V31.12c0-.32-.08-.52-.2-.68-.2-.2-.32-.24-.36-.28-.12-.04-.24-.04-.36-.04h-.12v-.8h13.88c.6 0 2.16 0 3.4-.08h.04c.28 0 .52-.04.76-.04l.16-.04v2.8l-.24-.16c-.52-.32-1.16-.64-1.92-.92-.6-.24-1.4-.44-2.24-.56l-.2-.04c-.04 0-.08-.04-.12-.04h-.24c-.6-.08-1.28-.12-1.88-.12h-7.84v10.84h10.4v.56h-10.4v14.76h10.12l.16-.04h.24ZM55.16 79.28v-3.2h21.48v3.56l-.24-.28c-.44-.48-.96-.92-1.52-1.24-.08-.04-.16-.08-.2-.12-.08-.04-.16-.08-.2-.12-.08-.04-.08-.04-.12-.04l-.04-.04a9.9 9.9 0 0 0-2.08-.64c-1-.2-2.12-.28-3.28-.28h-1.8v25.08c0 .36.08.64.24.8.16.16.28.28.44.28l.4.04v.72H63.6v-.72h.16c.08 0 .16 0 .28-.04 0 0 .12-.04.4-.28.16-.2.24-.44.24-.8V76.88h-1.76c-.48.04-.96.04-1.4.08h-.08c-.48.04-.96.12-1.4.2H60c-.08 0-.2.04-.32.04l-.12.04c-.44.08-.84.2-1.24.32l-.24.08c-.04.04-.08.04-.12.04-1 .36-1.88.84-2.56 1.4l-.24.2Zm39.746-3.88c6.68.04 13.8 5.24 13.8 14.96 0 8.4-5.8 14.52-13.76 14.52-6.76 0-13.88-5.24-13.88-14.92 0-8.44 5.8-14.56 13.8-14.56h.04Zm-.12.76c-6.72 0-11.24 5.56-11.24 13.76 0 10.48 6.08 14.16 11.28 14.16 6.68 0 11.2-5.48 11.2-13.68 0-10.52-6.04-14.24-11.24-14.24Zm55.927 15.52h3.36v.76h-.04c-.52 0-.8.16-.8 1.2v6.16l-.04.04c-2.04 2.24-6.2 4.88-11.24 4.88-3.48 0-7.12-1.56-9.76-4.16-1.88-1.88-4.12-5.24-4.08-10.36 0-8.8 5.8-14.92 14.08-14.92 2.32 0 4.6.32 6.8 1l.08.04c.04 0 .12.04.2.08h.08l.04.04.16.04c.36.12.68.24 1.04.36l.16.08c.04 0 .08.04.12.04l.24.08c.12.04.2.08.32.12h.04l.16.08c.36.16.76.32 1.08.44l.08.04h.04v3.76l-.28-.36c-.76-1-1.84-1.88-2.64-2.44l-.04-.04c-.04-.04-.08-.04-.12-.08-.08-.04-.12-.08-.2-.12l-.44-.32c-.32-.2-.52-.32-.64-.36l-.08-.04c-2-1.12-4.32-1.76-6.52-1.76-5.52 0-11.08 4.2-11.08 13.6 0 8.72 4.48 14.36 11.52 14.4 2.36 0 6.08-1.12 8.4-3.16v-9.12Zm20.318 10.68c.6-.28 1.48-.72 2.2-1.24l.24-.2V104h-14.92v-.68h.16c0-.04.04-.04.04-.04h.24c.24-.04.44-.16.52-.44.04-.08.04-.16.08-.24v-.04c0-.16.04-.36.04-.56V84.48l-.04-6.32c0-.36-.08-.6-.24-.8-.12-.16-.28-.28-.44-.28l-.36-.04v-.72h4.64v.72h-.16c-.24 0-.44.08-.6.24-.16.2-.24.36-.28.56l-.04.32v25.12h5.04c.96 0 2.12-.2 3.12-.6h.08c0-.04.04-.04.04-.04l.16-.08c.08-.04.2-.08.36-.16.04 0 .08 0 .12-.04Zm19.453-26.96c6.68.04 13.8 5.24 13.8 14.96 0 8.4-5.8 14.52-13.76 14.52-6.76 0-13.88-5.24-13.88-14.92 0-8.44 5.8-14.56 13.8-14.56h.04Zm-.12.76c-6.72 0-11.24 5.56-11.24 13.76 0 10.48 6.08 14.16 11.28 14.16 6.68 0 11.2-5.48 11.2-13.68 0-10.52-6.04-14.24-11.24-14.24ZM247.882 78l.6-1.84h2.32l-.16.24c-.28.48-.6 1.08-.96 1.68l-.16.32a38.6 38.6 0 0 0-1.8 3.64l-.12.2-.04.08c-.08.2-.16.36-.24.56l-9.52 21.84-.16-.32-8.56-19.04-.92 2.08v.04l-7.48 17.24-12.04-26.84h.04c-.44-.92-.56-.92-1.04-.92h-.56v-.8h3.4l1.4 3.08 9.76 21.72 7-16.6-2.92-6.48v-.04c-.44-.96-.6-.96-1.08-.96h-.6v-.76h3.52l.8 1.76.04.08.08.12.48 1.12.96 2.16 2.2-5.2h.88l-2.64 6.2 8.36 18.6 6.12-14.84c.84-2.04 1.6-3.88 2.12-5.36.52-1.36.8-2.28.92-2.76Z"/>
  <rect width="197" height="42" x="54" y="121" fill="#CE7A23" rx="21"/>
  <path fill="#000" d="M75.383 144.471c0 .408.074.754.22 1.037.148.283.34.516.579.697.25.17.538.3.867.391a4.35 4.35 0 0 0 1.02.119c.238 0 .493-.017.765-.051.272-.045.527-.125.765-.238.238-.113.436-.266.595-.459.159-.204.238-.459.238-.765 0-.329-.108-.595-.323-.799a2.394 2.394 0 0 0-.816-.51 8.228 8.228 0 0 0-1.156-.357c-.43-.102-.867-.215-1.31-.34a12.686 12.686 0 0 1-1.325-.408 4.75 4.75 0 0 1-1.156-.646 3.137 3.137 0 0 1-.833-.969c-.204-.397-.306-.873-.306-1.428 0-.623.13-1.162.39-1.615.273-.465.624-.85 1.055-1.156a4.55 4.55 0 0 1 1.462-.68 6.233 6.233 0 0 1 1.632-.221c.635 0 1.24.074 1.819.221a4.44 4.44 0 0 1 1.564.68c.453.317.81.725 1.07 1.224.273.487.409 1.082.409 1.785h-2.584c-.023-.363-.102-.663-.238-.901a1.436 1.436 0 0 0-.51-.561 2.198 2.198 0 0 0-.748-.289 4.402 4.402 0 0 0-.901-.085c-.215 0-.43.023-.646.068a1.822 1.822 0 0 0-.595.238c-.17.113-.312.255-.425.425-.114.17-.17.385-.17.646 0 .238.045.431.136.578.09.147.266.283.527.408.272.125.64.249 1.105.374.476.125 1.094.283 1.853.476.226.045.538.13.935.255.408.113.81.3 1.207.561a3.5 3.5 0 0 1 1.02 1.054c.294.431.442.986.442 1.666a3.71 3.71 0 0 1-.323 1.547 3.38 3.38 0 0 1-.97 1.241c-.418.34-.945.606-1.58.799-.624.193-1.349.289-2.176.289-.669 0-1.32-.085-1.955-.255a4.887 4.887 0 0 1-1.666-.765 3.855 3.855 0 0 1-1.14-1.343c-.282-.544-.419-1.19-.407-1.938h2.584Zm13.607-5.865h-3.638v-2.244h9.945v2.244h-3.638v9.894h-2.67v-9.894Zm10.906 5.202h3.145l-1.53-4.454h-.034l-1.581 4.454Zm.255-7.446h2.737l4.539 12.138h-2.771l-.918-2.703h-4.54l-.951 2.703H95.56l4.59-12.138Zm12.692 5.491h2.924c.612 0 1.071-.136 1.377-.408.306-.272.459-.714.459-1.326 0-.589-.153-1.014-.459-1.275-.306-.272-.765-.408-1.377-.408h-2.924v3.417Zm-2.669-5.491h6.545c.544 0 1.031.091 1.462.272.442.17.816.408 1.122.714.317.306.555.663.714 1.071.17.397.255.827.255 1.292 0 .714-.153 1.332-.459 1.853-.295.521-.782.918-1.462 1.19v.034c.328.091.6.232.816.425.215.181.391.402.527.663.136.249.232.527.289.833.068.306.113.612.136.918.011.193.022.419.034.68.011.261.028.527.051.799.034.272.079.533.136.782.068.238.164.442.289.612h-2.669c-.148-.385-.238-.844-.272-1.377a20.517 20.517 0 0 0-.153-1.53c-.091-.635-.284-1.099-.578-1.394-.295-.295-.777-.442-1.445-.442h-2.669v4.743h-2.669v-12.138Zm16.355 2.244h-3.638v-2.244h9.945v2.244h-3.638v9.894h-2.669v-9.894Zm18.507 2.669h2.703c.476 0 .867-.113 1.173-.34.306-.227.459-.595.459-1.105 0-.283-.051-.516-.153-.697a1.134 1.134 0 0 0-.408-.425 1.606 1.606 0 0 0-.595-.204 3.315 3.315 0 0 0-.68-.068h-2.499v2.839Zm-2.669-4.913h5.712a7.56 7.56 0 0 1 1.581.153c.476.102.884.272 1.224.51.34.227.601.533.782.918.193.385.289.861.289 1.428 0 .612-.141 1.122-.425 1.53-.272.408-.68.742-1.224 1.003.748.215 1.304.595 1.666 1.139.374.533.561 1.179.561 1.938 0 .612-.119 1.145-.357 1.598a3.084 3.084 0 0 1-.969 1.088 4.138 4.138 0 0 1-1.377.629 6.11 6.11 0 0 1-1.581.204h-5.882v-12.138Zm2.669 10.064h2.856c.261 0 .51-.023.748-.068.238-.057.448-.142.629-.255a1.28 1.28 0 0 0 .425-.493c.114-.204.17-.465.17-.782 0-.623-.175-1.065-.527-1.326-.351-.272-.816-.408-1.394-.408h-2.907v3.332Zm13.143-3.944a6.6 6.6 0 0 0 .17 1.496c.125.476.317.907.578 1.292.261.385.601.697 1.02.935.419.227.929.34 1.53.34s1.111-.113 1.53-.34c.419-.238.759-.55 1.02-.935s.448-.816.561-1.292c.125-.487.187-.986.187-1.496 0-.533-.062-1.048-.187-1.547a3.855 3.855 0 0 0-.561-1.326 2.793 2.793 0 0 0-1.02-.935c-.419-.238-.929-.357-1.53-.357s-1.111.119-1.53.357a2.793 2.793 0 0 0-1.02.935 4.126 4.126 0 0 0-.578 1.326 6.979 6.979 0 0 0-.17 1.547Zm-2.669 0c0-.907.136-1.745.408-2.516a6.048 6.048 0 0 1 1.173-2.04 5.384 5.384 0 0 1 1.87-1.36c.748-.329 1.587-.493 2.516-.493.941 0 1.779.164 2.516.493.737.329 1.36.782 1.87 1.36.51.578.901 1.258 1.173 2.04a7.51 7.51 0 0 1 .408 2.516c0 .884-.136 1.711-.408 2.482a5.93 5.93 0 0 1-1.173 1.989 5.484 5.484 0 0 1-1.87 1.343c-.737.317-1.575.476-2.516.476-.929 0-1.768-.159-2.516-.476a5.484 5.484 0 0 1-1.87-1.343 5.93 5.93 0 0 1-1.173-1.989 7.406 7.406 0 0 1-.408-2.482Zm17.601 0c0 .51.056 1.009.17 1.496.124.476.317.907.578 1.292.26.385.6.697 1.02.935.419.227.929.34 1.53.34.6 0 1.11-.113 1.53-.34.419-.238.759-.55 1.02-.935.26-.385.447-.816.561-1.292.124-.487.187-.986.187-1.496 0-.533-.063-1.048-.187-1.547a3.894 3.894 0 0 0-.561-1.326 2.793 2.793 0 0 0-1.02-.935c-.42-.238-.93-.357-1.53-.357-.601 0-1.111.119-1.53.357-.42.227-.76.538-1.02.935a4.105 4.105 0 0 0-.578 1.326 6.92 6.92 0 0 0-.17 1.547Zm-2.669 0c0-.907.136-1.745.408-2.516a6.048 6.048 0 0 1 1.173-2.04 5.384 5.384 0 0 1 1.87-1.36c.748-.329 1.586-.493 2.516-.493.94 0 1.779.164 2.516.493.736.329 1.36.782 1.87 1.36.51.578.901 1.258 1.173 2.04a7.51 7.51 0 0 1 .408 2.516c0 .884-.136 1.711-.408 2.482a5.93 5.93 0 0 1-1.173 1.989 5.494 5.494 0 0 1-1.87 1.343c-.737.317-1.576.476-2.516.476-.93 0-1.768-.159-2.516-.476a5.484 5.484 0 0 1-1.87-1.343 5.93 5.93 0 0 1-1.173-1.989 7.406 7.406 0 0 1-.408-2.482Zm15.458-6.12h2.669v5.032l4.743-5.032h3.332l-4.743 4.794 5.202 7.344h-3.349l-3.655-5.457-1.53 1.547v3.91H185.9v-12.138Zm13.969 0h2.669V148.5h-2.669v-12.138Zm6.713 0h2.652l5.066 8.143h.034v-8.143h2.499V148.5h-2.669l-5.049-8.126h-.034v8.126h-2.499v-12.138Zm23.073 10.761c-.476.612-1.003 1.043-1.581 1.292a4.565 4.565 0 0 1-1.751.357c-.93 0-1.768-.159-2.516-.476a5.484 5.484 0 0 1-1.87-1.343 5.93 5.93 0 0 1-1.173-1.989 7.406 7.406 0 0 1-.408-2.482c0-.907.136-1.745.408-2.516a6.048 6.048 0 0 1 1.173-2.04 5.384 5.384 0 0 1 1.87-1.36c.748-.329 1.586-.493 2.516-.493.623 0 1.224.096 1.802.289a4.867 4.867 0 0 1 1.581.816c.476.363.867.81 1.173 1.343.306.533.493 1.145.561 1.836h-2.55c-.159-.68-.465-1.19-.918-1.53-.454-.34-1.003-.51-1.649-.51-.601 0-1.111.119-1.53.357-.42.227-.76.538-1.02.935a4.105 4.105 0 0 0-.578 1.326 6.92 6.92 0 0 0 0 3.043c.124.476.317.907.578 1.292.26.385.6.697 1.02.935.419.227.929.34 1.53.34.884 0 1.564-.221 2.04-.663.487-.453.77-1.105.85-1.955h-2.686v-1.989h5.1v6.562h-1.7l-.272-1.377ZM465.46 30.307c-.646 0-1.207.13-1.683.391a3.27 3.27 0 0 0-1.139 1.054 4.74 4.74 0 0 0-.663 1.479 7.12 7.12 0 0 0-.204 1.7c0 .578.068 1.145.204 1.7a4.96 4.96 0 0 0 .663 1.496c.295.43.674.776 1.139 1.037.476.26 1.037.391 1.683.391.646 0 1.201-.13 1.666-.391.476-.26.861-.606 1.156-1.037.295-.442.51-.94.646-1.496a6.616 6.616 0 0 0 0-3.4 4.474 4.474 0 0 0-.646-1.479 3.235 3.235 0 0 0-1.156-1.054c-.465-.26-1.02-.391-1.666-.391Zm0-1.734c.907 0 1.717.17 2.431.51.725.34 1.337.799 1.836 1.377a6.005 6.005 0 0 1 1.139 2.023 7.3 7.3 0 0 1 .408 2.448c0 .873-.136 1.694-.408 2.465a6.005 6.005 0 0 1-1.139 2.023 5.446 5.446 0 0 1-1.836 1.377c-.714.329-1.524.493-2.431.493s-1.723-.164-2.448-.493a5.49 5.49 0 0 1-1.819-1.377 6.236 6.236 0 0 1-1.156-2.023 7.634 7.634 0 0 1-.391-2.465c0-.861.13-1.677.391-2.448a6.236 6.236 0 0 1 1.156-2.023 5.49 5.49 0 0 1 1.819-1.377c.725-.34 1.541-.51 2.448-.51Zm8.462.289h2.125v7.072c0 .408.017.822.051 1.241.045.42.159.799.34 1.139.193.329.476.6.85.816.385.215.924.323 1.615.323s1.224-.108 1.598-.323c.385-.215.669-.487.85-.816.193-.34.306-.72.34-1.139.045-.42.068-.833.068-1.241v-7.072h2.125v7.769c0 .782-.119 1.462-.357 2.04a3.958 3.958 0 0 1-1.02 1.462 4.205 4.205 0 0 1-1.564.867 6.772 6.772 0 0 1-2.04.289 6.772 6.772 0 0 1-2.04-.289 4.369 4.369 0 0 1-1.581-.867 4.052 4.052 0 0 1-1.003-1.462c-.238-.578-.357-1.258-.357-2.04v-7.769Zm13.255 0h5.797c1.337 0 2.34.289 3.009.867.668.578 1.003 1.383 1.003 2.414 0 .578-.085 1.06-.255 1.445a3.31 3.31 0 0 1-.595.918 2.352 2.352 0 0 1-.68.493 4.9 4.9 0 0 1-.476.204v.034a2.1 2.1 0 0 1 .578.17c.215.09.413.238.595.442.181.193.328.448.442.765.124.317.187.714.187 1.19 0 .714.051 1.366.153 1.955.113.578.283.992.51 1.241h-2.278a2.065 2.065 0 0 1-.289-.867 12.7 12.7 0 0 1-.034-.918c0-.555-.034-1.031-.102-1.428-.068-.408-.193-.742-.374-1.003a1.565 1.565 0 0 0-.748-.595c-.306-.125-.703-.187-1.19-.187h-3.128V41h-2.125V28.862Zm2.125 5.525h3.485c.68 0 1.195-.159 1.547-.476.351-.329.527-.816.527-1.462 0-.385-.057-.697-.17-.935a1.346 1.346 0 0 0-.476-.578 1.658 1.658 0 0 0-.68-.272 4.374 4.374 0 0 0-.782-.068h-3.451v3.791Zm17.67 2.567c0 .465.079.861.238 1.19.158.329.379.6.663.816.283.204.606.357.969.459.374.09.776.136 1.207.136.464 0 .861-.051 1.19-.153a2.53 2.53 0 0 0 .799-.425c.204-.17.351-.363.442-.578.09-.227.136-.453.136-.68 0-.465-.108-.805-.323-1.02a1.697 1.697 0 0 0-.68-.476 13.101 13.101 0 0 0-1.513-.442c-.567-.147-1.27-.334-2.108-.561-.522-.136-.958-.312-1.309-.527a3.276 3.276 0 0 1-.816-.748 2.72 2.72 0 0 1-.442-.867 3.68 3.68 0 0 1-.119-.935c0-.612.124-1.139.374-1.581.26-.453.6-.827 1.02-1.122.419-.295.895-.51 1.428-.646a6.03 6.03 0 0 1 1.615-.221c.634 0 1.229.085 1.785.255a4.217 4.217 0 0 1 1.479.731c.43.329.77.737 1.02 1.224.249.476.374 1.031.374 1.666h-2.125c-.057-.782-.323-1.332-.799-1.649-.476-.329-1.083-.493-1.819-.493-.25 0-.505.028-.765.085a2.14 2.14 0 0 0-.714.255 1.553 1.553 0 0 0-.544.476c-.136.204-.204.459-.204.765 0 .43.13.77.391 1.02.272.238.623.42 1.054.544.045.011.221.062.527.153a83.149 83.149 0 0 1 2.176.578c.374.09.64.159.799.204.396.125.742.295 1.037.51.294.215.538.465.731.748.204.272.351.567.442.884.102.317.153.635.153.952 0 .68-.142 1.264-.425 1.751a3.483 3.483 0 0 1-1.088 1.173 4.64 4.64 0 0 1-1.547.663 7.135 7.135 0 0 1-1.768.221 7.272 7.272 0 0 1-1.955-.255 4.574 4.574 0 0 1-1.598-.782 3.839 3.839 0 0 1-1.088-1.343c-.272-.555-.414-1.207-.425-1.955h2.125Zm10.479-8.092h8.738v1.836h-6.613v3.179h6.12v1.734h-6.12v3.553h6.732V41h-8.857V28.862Zm11.558 0h5.797c1.338 0 2.341.289 3.009.867.669.578 1.003 1.383 1.003 2.414 0 .578-.085 1.06-.255 1.445-.17.374-.368.68-.595.918a2.325 2.325 0 0 1-.68.493c-.215.102-.374.17-.476.204v.034c.182.023.374.08.578.17.216.09.414.238.595.442.182.193.329.448.442.765.125.317.187.714.187 1.19 0 .714.051 1.366.153 1.955.114.578.284.992.51 1.241h-2.278a2.08 2.08 0 0 1-.289-.867 13.3 13.3 0 0 1-.034-.918c0-.555-.034-1.031-.102-1.428-.068-.408-.192-.742-.374-1.003a1.556 1.556 0 0 0-.748-.595c-.306-.125-.702-.187-1.19-.187h-3.128V41h-2.125V28.862Zm2.125 5.525h3.485c.68 0 1.196-.159 1.547-.476.352-.329.527-.816.527-1.462 0-.385-.056-.697-.17-.935a1.34 1.34 0 0 0-.476-.578 1.647 1.647 0 0 0-.68-.272 4.366 4.366 0 0 0-.782-.068h-3.451v3.791Zm9.019-5.525h2.21l3.043 9.605h.034l3.111-9.605h2.159L546.562 41h-2.363l-4.046-12.138Zm12.62 0h2.125V41h-2.125V28.862Zm13.775 3.859a4.304 4.304 0 0 0-.374-.969 2.584 2.584 0 0 0-1.496-1.258 3.254 3.254 0 0 0-1.156-.187c-.646 0-1.207.13-1.683.391a3.27 3.27 0 0 0-1.139 1.054 4.74 4.74 0 0 0-.663 1.479 7.12 7.12 0 0 0-.204 1.7c0 .578.068 1.145.204 1.7a4.96 4.96 0 0 0 .663 1.496c.295.43.674.776 1.139 1.037.476.26 1.037.391 1.683.391.476 0 .895-.08 1.258-.238.363-.17.674-.397.935-.68a3.3 3.3 0 0 0 .612-1.02 4.84 4.84 0 0 0 .289-1.241h2.074a5.626 5.626 0 0 1-.476 1.989 4.874 4.874 0 0 1-1.071 1.564c-.453.43-.986.765-1.598 1.003a5.536 5.536 0 0 1-2.023.357c-.907 0-1.723-.164-2.448-.493a5.49 5.49 0 0 1-1.819-1.377 6.236 6.236 0 0 1-1.156-2.023 7.634 7.634 0 0 1-.391-2.465c0-.861.13-1.677.391-2.448a6.236 6.236 0 0 1 1.156-2.023 5.49 5.49 0 0 1 1.819-1.377c.725-.34 1.541-.51 2.448-.51.68 0 1.32.096 1.921.289a4.647 4.647 0 0 1 1.581.816c.465.351.839.782 1.122 1.292a4.53 4.53 0 0 1 .527 1.751h-2.125Zm4.925-3.859h8.738v1.836h-6.613v3.179h6.12v1.734h-6.12v3.553h6.732V41h-8.857V28.862Zm12.952 8.092c0 .465.079.861.238 1.19.158.329.379.6.663.816.283.204.606.357.969.459.374.09.776.136 1.207.136.464 0 .861-.051 1.19-.153a2.53 2.53 0 0 0 .799-.425c.204-.17.351-.363.442-.578.09-.227.136-.453.136-.68 0-.465-.108-.805-.323-1.02a1.697 1.697 0 0 0-.68-.476 13.101 13.101 0 0 0-1.513-.442c-.567-.147-1.27-.334-2.108-.561-.522-.136-.958-.312-1.309-.527a3.276 3.276 0 0 1-.816-.748 2.72 2.72 0 0 1-.442-.867 3.68 3.68 0 0 1-.119-.935c0-.612.124-1.139.374-1.581.26-.453.6-.827 1.02-1.122.419-.295.895-.51 1.428-.646a6.03 6.03 0 0 1 1.615-.221c.634 0 1.229.085 1.785.255a4.217 4.217 0 0 1 1.479.731c.43.329.77.737 1.02 1.224.249.476.374 1.031.374 1.666h-2.125c-.057-.782-.323-1.332-.799-1.649-.476-.329-1.083-.493-1.819-.493-.25 0-.505.028-.765.085a2.14 2.14 0 0 0-.714.255 1.553 1.553 0 0 0-.544.476c-.136.204-.204.459-.204.765 0 .43.13.77.391 1.02.272.238.623.42 1.054.544.045.011.221.062.527.153a83.149 83.149 0 0 1 2.176.578c.374.09.64.159.799.204.396.125.742.295 1.037.51.294.215.538.465.731.748.204.272.351.567.442.884.102.317.153.635.153.952 0 .68-.142 1.264-.425 1.751a3.483 3.483 0 0 1-1.088 1.173 4.64 4.64 0 0 1-1.547.663 7.135 7.135 0 0 1-1.768.221 7.272 7.272 0 0 1-1.955-.255 4.574 4.574 0 0 1-1.598-.782 3.839 3.839 0 0 1-1.088-1.343c-.272-.555-.414-1.207-.425-1.955h2.125Zm16.061-8.092h2.125V41h-2.125V28.862Zm5.496 0h2.244l5.542 8.942h.034v-8.942h2.023V41h-2.244l-5.525-8.925h-.051V41h-2.023V28.862Zm21.398 3.859a4.352 4.352 0 0 0-.374-.969 2.593 2.593 0 0 0-1.496-1.258 3.254 3.254 0 0 0-1.156-.187c-.646 0-1.207.13-1.683.391-.465.26-.845.612-1.139 1.054a4.74 4.74 0 0 0-.663 1.479 7.12 7.12 0 0 0-.204 1.7c0 .578.068 1.145.204 1.7a4.96 4.96 0 0 0 .663 1.496c.294.43.674.776 1.139 1.037.476.26 1.037.391 1.683.391.476 0 .895-.08 1.258-.238.362-.17.674-.397.935-.68a3.34 3.34 0 0 0 .612-1.02c.147-.385.243-.799.289-1.241h2.074a5.647 5.647 0 0 1-.476 1.989 4.874 4.874 0 0 1-1.071 1.564c-.454.43-.986.765-1.598 1.003a5.54 5.54 0 0 1-2.023.357c-.907 0-1.723-.164-2.448-.493a5.48 5.48 0 0 1-1.819-1.377 6.236 6.236 0 0 1-1.156-2.023 7.634 7.634 0 0 1-.391-2.465c0-.861.13-1.677.391-2.448a6.236 6.236 0 0 1 1.156-2.023 5.48 5.48 0 0 1 1.819-1.377c.725-.34 1.541-.51 2.448-.51.68 0 1.32.096 1.921.289.6.181 1.127.453 1.581.816a4.11 4.11 0 0 1 1.122 1.292 4.53 4.53 0 0 1 .527 1.751h-2.125Zm4.924-3.859h2.125v10.302h6.171V41h-8.296V28.862Zm10.476 0h2.125v7.072c0 .408.017.822.051 1.241.045.42.158.799.34 1.139.192.329.476.6.85.816.385.215.923.323 1.615.323.691 0 1.224-.108 1.598-.323.385-.215.668-.487.85-.816.192-.34.306-.72.34-1.139.045-.42.068-.833.068-1.241v-7.072h2.125v7.769c0 .782-.119 1.462-.357 2.04a3.958 3.958 0 0 1-1.02 1.462 4.205 4.205 0 0 1-1.564.867 6.772 6.772 0 0 1-2.04.289 6.772 6.772 0 0 1-2.04-.289 4.369 4.369 0 0 1-1.581-.867 4.052 4.052 0 0 1-1.003-1.462c-.238-.578-.357-1.258-.357-2.04v-7.769Zm13.254 0h5.032c.93 0 1.734.159 2.414.476.68.317 1.236.754 1.666 1.309a5.35 5.35 0 0 1 .952 1.921 8.36 8.36 0 0 1 .323 2.363 8.36 8.36 0 0 1-.323 2.363 5.528 5.528 0 0 1-.952 1.938c-.43.544-.986.975-1.666 1.292-.68.317-1.484.476-2.414.476h-5.032V28.862Zm2.125 10.404h2.091c.828 0 1.502-.108 2.023-.323.533-.227.947-.533 1.241-.918a3.24 3.24 0 0 0 .612-1.377 8.2 8.2 0 0 0 .17-1.717c0-.612-.056-1.179-.17-1.7a3.117 3.117 0 0 0-.612-1.377c-.294-.397-.708-.703-1.241-.918-.521-.227-1.195-.34-2.023-.34h-2.091v8.67Zm10.994-10.404h8.738v1.836h-6.613v3.179h6.12v1.734h-6.12v3.553h6.732V41h-8.857V28.862Zm-208.929 24h1.156v5.27h7.208v-5.27h1.156V65h-1.156v-5.882h-7.208V65h-1.156V52.862Zm12.514 6.052c.034-.51.141-.952.323-1.326.181-.374.425-.68.731-.918a3.212 3.212 0 0 1 1.105-.527 5.35 5.35 0 0 1 1.394-.17c.385 0 .77.04 1.156.119a2.69 2.69 0 0 1 1.037.408c.306.204.555.493.748.867.192.363.289.839.289 1.428v4.658c0 .43.209.646.629.646a.83.83 0 0 0 .34-.068v.901c-.125.023-.238.04-.34.051a3.08 3.08 0 0 1-.357.017 1.81 1.81 0 0 1-.663-.102.94.94 0 0 1-.374-.323 1.264 1.264 0 0 1-.187-.476 5.33 5.33 0 0 1-.034-.629h-.034a7.21 7.21 0 0 1-.595.765 2.8 2.8 0 0 1-.663.544 2.92 2.92 0 0 1-.833.34 4.46 4.46 0 0 1-1.105.119c-.408 0-.794-.051-1.156-.153a2.634 2.634 0 0 1-.935-.442 2.42 2.42 0 0 1-.629-.799c-.148-.329-.221-.714-.221-1.156 0-.612.136-1.088.408-1.428a2.545 2.545 0 0 1 1.071-.799 6.029 6.029 0 0 1 1.513-.374c.566-.08 1.139-.153 1.717-.221.226-.023.425-.051.595-.085.17-.034.311-.09.425-.17a.832.832 0 0 0 .255-.357 1.39 1.39 0 0 0 .102-.578c0-.363-.063-.657-.187-.884a1.325 1.325 0 0 0-.493-.561 1.82 1.82 0 0 0-.731-.272 4.334 4.334 0 0 0-.884-.085c-.68 0-1.236.164-1.666.493-.431.317-.658.833-.68 1.547h-1.071Zm5.712 1.292h-.034c-.068.125-.199.215-.391.272a4.016 4.016 0 0 1-.51.119c-.454.08-.924.153-1.411.221a7.197 7.197 0 0 0-1.309.272 2.582 2.582 0 0 0-.986.544c-.25.227-.374.555-.374.986 0 .272.051.516.153.731.113.204.26.385.442.544.181.147.391.26.629.34.238.08.481.119.731.119.408 0 .799-.062 1.173-.187s.697-.306.969-.544c.283-.238.504-.527.663-.867.17-.34.255-.725.255-1.156v-1.394Zm4.072-7.344h1.071v1.717h-1.071v-1.717Zm0 3.366h1.071V65h-1.071v-8.772Zm3.971 0h.986v2.057h.034c.272-.714.691-1.264 1.258-1.649.578-.385 1.264-.561 2.057-.527v1.071a3.142 3.142 0 0 0-1.326.204 2.97 2.97 0 0 0-1.037.646 3.006 3.006 0 0 0-.663 1.02 3.31 3.31 0 0 0-.238 1.275V65h-1.071v-8.772Zm17.982 2.754c-.148-.657-.42-1.173-.816-1.547-.397-.374-.952-.561-1.666-.561-.51 0-.958.108-1.343.323a3.023 3.023 0 0 0-.969.85 4.09 4.09 0 0 0-.578 1.207 4.973 4.973 0 0 0-.187 1.36c0 .465.062.924.187 1.377.136.442.328.839.578 1.19.26.351.583.635.969.85.385.215.833.323 1.343.323.328 0 .64-.062.935-.187.294-.125.555-.295.782-.51a2.924 2.924 0 0 0 .833-1.802h1.071c-.148 1.065-.539 1.898-1.173 2.499-.635.59-1.451.884-2.448.884-.669 0-1.264-.119-1.785-.357a3.89 3.89 0 0 1-1.292-1.003 4.337 4.337 0 0 1-.799-1.462 5.857 5.857 0 0 1-.272-1.802c0-.635.09-1.23.272-1.785.181-.567.447-1.06.799-1.479a3.89 3.89 0 0 1 1.292-1.003c.521-.25 1.116-.374 1.785-.374.94 0 1.734.25 2.38.748.657.499 1.048 1.252 1.173 2.261h-1.071Zm7.183-2.108c-.51 0-.958.108-1.343.323a3.044 3.044 0 0 0-.969.85 4.115 4.115 0 0 0-.578 1.207 4.973 4.973 0 0 0-.187 1.36c0 .465.062.924.187 1.377.136.442.329.839.578 1.19.261.351.584.635.969.85.385.215.833.323 1.343.323s.958-.108 1.343-.323c.385-.215.703-.499.952-.85.261-.351.453-.748.578-1.19.136-.453.204-.912.204-1.377 0-.465-.068-.918-.204-1.36a3.61 3.61 0 0 0-.578-1.207 2.863 2.863 0 0 0-.952-.85c-.385-.215-.833-.323-1.343-.323Zm0-.901c.669 0 1.258.125 1.768.374.521.25.958.584 1.309 1.003.351.42.618.912.799 1.479.181.555.272 1.15.272 1.785s-.091 1.235-.272 1.802a4.355 4.355 0 0 1-.799 1.462c-.351.42-.788.754-1.309 1.003-.51.238-1.099.357-1.768.357s-1.264-.119-1.785-.357a3.89 3.89 0 0 1-1.292-1.003 4.355 4.355 0 0 1-.799-1.462 5.888 5.888 0 0 1-.272-1.802c0-.635.091-1.23.272-1.785.181-.567.448-1.06.799-1.479a3.89 3.89 0 0 1 1.292-1.003c.521-.25 1.116-.374 1.785-.374Zm6.607-3.111h1.071V65h-1.071V52.862Zm7.677 4.012c-.51 0-.958.108-1.343.323a3.044 3.044 0 0 0-.969.85 4.115 4.115 0 0 0-.578 1.207 4.973 4.973 0 0 0-.187 1.36c0 .465.062.924.187 1.377.136.442.329.839.578 1.19.261.351.584.635.969.85.385.215.833.323 1.343.323s.958-.108 1.343-.323c.385-.215.703-.499.952-.85.261-.351.453-.748.578-1.19.136-.453.204-.912.204-1.377 0-.465-.068-.918-.204-1.36a3.61 3.61 0 0 0-.578-1.207 2.863 2.863 0 0 0-.952-.85c-.385-.215-.833-.323-1.343-.323Zm0-.901c.669 0 1.258.125 1.768.374.521.25.958.584 1.309 1.003.351.42.618.912.799 1.479.181.555.272 1.15.272 1.785s-.091 1.235-.272 1.802a4.355 4.355 0 0 1-.799 1.462c-.351.42-.788.754-1.309 1.003-.51.238-1.099.357-1.768.357s-1.264-.119-1.785-.357a3.89 3.89 0 0 1-1.292-1.003 4.355 4.355 0 0 1-.799-1.462 5.888 5.888 0 0 1-.272-1.802c0-.635.091-1.23.272-1.785.181-.567.448-1.06.799-1.479a3.89 3.89 0 0 1 1.292-1.003c.521-.25 1.116-.374 1.785-.374Zm6.59.255h.986v2.057h.034c.272-.714.692-1.264 1.258-1.649.578-.385 1.264-.561 2.057-.527v1.071a3.142 3.142 0 0 0-1.326.204 2.978 2.978 0 0 0-1.037.646 3.006 3.006 0 0 0-.663 1.02 3.33 3.33 0 0 0-.238 1.275V65h-1.071v-8.772Zm-72.308 20.634h1.156v5.27h7.208v-5.27h1.156V89h-1.156v-5.882h-7.208V89h-1.156V76.862Zm12.514 6.052c.034-.51.141-.952.323-1.326.181-.374.425-.68.731-.918a3.212 3.212 0 0 1 1.105-.527 5.35 5.35 0 0 1 1.394-.17c.385 0 .77.04 1.156.119a2.69 2.69 0 0 1 1.037.408c.306.204.555.493.748.867.192.363.289.839.289 1.428v4.658c0 .43.209.646.629.646a.83.83 0 0 0 .34-.068v.901c-.125.023-.238.04-.34.051a3.08 3.08 0 0 1-.357.017 1.81 1.81 0 0 1-.663-.102.94.94 0 0 1-.374-.323 1.264 1.264 0 0 1-.187-.476 5.33 5.33 0 0 1-.034-.629h-.034a7.21 7.21 0 0 1-.595.765 2.8 2.8 0 0 1-.663.544 2.92 2.92 0 0 1-.833.34 4.46 4.46 0 0 1-1.105.119c-.408 0-.794-.051-1.156-.153a2.634 2.634 0 0 1-.935-.442 2.42 2.42 0 0 1-.629-.799c-.148-.329-.221-.714-.221-1.156 0-.612.136-1.088.408-1.428a2.545 2.545 0 0 1 1.071-.799 6.029 6.029 0 0 1 1.513-.374c.566-.08 1.139-.153 1.717-.221.226-.023.425-.051.595-.085.17-.034.311-.09.425-.17a.832.832 0 0 0 .255-.357 1.39 1.39 0 0 0 .102-.578c0-.363-.063-.657-.187-.884a1.325 1.325 0 0 0-.493-.561 1.82 1.82 0 0 0-.731-.272 4.334 4.334 0 0 0-.884-.085c-.68 0-1.236.164-1.666.493-.431.317-.658.833-.68 1.547h-1.071Zm5.712 1.292h-.034c-.068.125-.199.215-.391.272a4.016 4.016 0 0 1-.51.119c-.454.08-.924.153-1.411.221a7.197 7.197 0 0 0-1.309.272 2.582 2.582 0 0 0-.986.544c-.25.227-.374.555-.374.986 0 .272.051.516.153.731.113.204.26.385.442.544.181.147.391.26.629.34.238.08.481.119.731.119.408 0 .799-.062 1.173-.187s.697-.306.969-.544c.283-.238.504-.527.663-.867.17-.34.255-.725.255-1.156v-1.394Zm4.072-7.344h1.071v1.717h-1.071v-1.717Zm0 3.366h1.071V89h-1.071v-8.772Zm3.971 0h.986v2.057h.034c.272-.714.691-1.264 1.258-1.649.578-.385 1.264-.561 2.057-.527v1.071a3.142 3.142 0 0 0-1.326.204 2.97 2.97 0 0 0-1.037.646 3.006 3.006 0 0 0-.663 1.02 3.31 3.31 0 0 0-.238 1.275V89h-1.071v-8.772Zm13.494 0h1.785v.901h-1.785v5.916c0 .351.045.629.136.833.102.193.345.3.731.323.306 0 .612-.017.918-.051v.901c-.159 0-.318.006-.476.017a6.72 6.72 0 0 1-.476.017c-.714 0-1.213-.136-1.496-.408-.284-.283-.42-.799-.408-1.547v-6.001h-1.53v-.901h1.53v-2.635h1.071v2.635Zm4.18 0h.986v2.057h.034c.272-.714.691-1.264 1.258-1.649.578-.385 1.264-.561 2.057-.527v1.071a3.142 3.142 0 0 0-1.326.204 2.97 2.97 0 0 0-1.037.646 3.006 3.006 0 0 0-.663 1.02 3.31 3.31 0 0 0-.238 1.275V89h-1.071v-8.772Zm12.22 3.774a3.702 3.702 0 0 0-.221-1.173 2.97 2.97 0 0 0-.544-.986 2.59 2.59 0 0 0-.867-.697 2.417 2.417 0 0 0-1.156-.272c-.442 0-.833.09-1.173.272a2.59 2.59 0 0 0-.867.697c-.238.283-.43.618-.578 1.003-.136.374-.226.76-.272 1.156h5.678Zm-5.678.901c0 .385.051.788.153 1.207.114.408.289.776.527 1.105.238.329.539.6.901.816.363.215.799.323 1.309.323.782 0 1.394-.204 1.836-.612.442-.408.748-.952.918-1.632h1.071c-.226.997-.646 1.768-1.258 2.312-.6.544-1.456.816-2.567.816-.691 0-1.292-.119-1.802-.357a3.444 3.444 0 0 1-1.224-1.003 4.612 4.612 0 0 1-.714-1.479 7.082 7.082 0 0 1-.221-1.785c0-.578.074-1.145.221-1.7a4.612 4.612 0 0 1 .714-1.479 3.46 3.46 0 0 1 1.224-1.054c.51-.272 1.111-.408 1.802-.408.703 0 1.304.142 1.802.425a3.47 3.47 0 0 1 1.207 1.122c.318.453.544.98.68 1.581.136.59.193 1.19.17 1.802h-6.749Zm8.935-1.989c.034-.51.141-.952.323-1.326.181-.374.425-.68.731-.918a3.212 3.212 0 0 1 1.105-.527 5.35 5.35 0 0 1 1.394-.17c.385 0 .77.04 1.156.119a2.69 2.69 0 0 1 1.037.408c.306.204.555.493.748.867.192.363.289.839.289 1.428v4.658c0 .43.209.646.629.646a.83.83 0 0 0 .34-.068v.901c-.125.023-.238.04-.34.051a3.08 3.08 0 0 1-.357.017 1.81 1.81 0 0 1-.663-.102.94.94 0 0 1-.374-.323 1.264 1.264 0 0 1-.187-.476 5.33 5.33 0 0 1-.034-.629h-.034a7.21 7.21 0 0 1-.595.765 2.8 2.8 0 0 1-.663.544 2.92 2.92 0 0 1-.833.34 4.46 4.46 0 0 1-1.105.119c-.408 0-.794-.051-1.156-.153a2.634 2.634 0 0 1-.935-.442 2.42 2.42 0 0 1-.629-.799c-.148-.329-.221-.714-.221-1.156 0-.612.136-1.088.408-1.428a2.545 2.545 0 0 1 1.071-.799 6.029 6.029 0 0 1 1.513-.374c.566-.08 1.139-.153 1.717-.221.226-.023.425-.051.595-.085.17-.034.311-.09.425-.17a.832.832 0 0 0 .255-.357 1.39 1.39 0 0 0 .102-.578c0-.363-.063-.657-.187-.884a1.325 1.325 0 0 0-.493-.561 1.82 1.82 0 0 0-.731-.272 4.334 4.334 0 0 0-.884-.085c-.68 0-1.236.164-1.666.493-.431.317-.658.833-.68 1.547h-1.071Zm5.712 1.292h-.034c-.068.125-.199.215-.391.272a4.016 4.016 0 0 1-.51.119c-.454.08-.924.153-1.411.221a7.197 7.197 0 0 0-1.309.272 2.582 2.582 0 0 0-.986.544c-.25.227-.374.555-.374.986 0 .272.051.516.153.731.113.204.26.385.442.544.181.147.391.26.629.34.238.08.481.119.731.119.408 0 .799-.062 1.173-.187s.697-.306.969-.544c.283-.238.504-.527.663-.867.17-.34.255-.725.255-1.156v-1.394Zm5.755-3.978h1.785v.901h-1.785v5.916c0 .351.046.629.136.833.102.193.346.3.731.323.306 0 .612-.017.918-.051v.901a6.72 6.72 0 0 0-.476.017 6.677 6.677 0 0 1-.476.017c-.714 0-1.212-.136-1.496-.408-.283-.283-.419-.799-.408-1.547v-6.001h-1.53v-.901h1.53v-2.635h1.071v2.635Zm4.18 0h.986v1.479h.051c.284-.544.652-.969 1.105-1.275.465-.306 1.054-.459 1.768-.459.578 0 1.1.142 1.564.425.476.283.794.714.952 1.292.261-.578.646-1.009 1.156-1.292a3.31 3.31 0 0 1 1.632-.425c1.938 0 2.907 1.026 2.907 3.077V89h-1.071v-5.899c0-.725-.153-1.275-.459-1.649-.306-.385-.844-.578-1.615-.578-.464 0-.85.09-1.156.272-.306.17-.549.402-.731.697a3.159 3.159 0 0 0-.391 1.02 6.548 6.548 0 0 0-.102 1.173V89h-1.071v-5.95a3.29 3.29 0 0 0-.102-.833 1.683 1.683 0 0 0-.306-.697 1.36 1.36 0 0 0-.561-.476c-.238-.113-.527-.17-.867-.17-.453 0-.85.085-1.19.255-.328.159-.6.385-.816.68a3.01 3.01 0 0 0-.459 1.02c-.102.385-.153.81-.153 1.275V89h-1.071v-8.772Zm21.319 3.774a3.73 3.73 0 0 0-.221-1.173 2.987 2.987 0 0 0-.544-.986 2.59 2.59 0 0 0-.867-.697 2.42 2.42 0 0 0-1.156-.272c-.442 0-.833.09-1.173.272a2.59 2.59 0 0 0-.867.697 3.464 3.464 0 0 0-.578 1.003 5.03 5.03 0 0 0-.272 1.156h5.678Zm-5.678.901c0 .385.051.788.153 1.207.113.408.289.776.527 1.105.238.329.538.6.901.816.362.215.799.323 1.309.323.782 0 1.394-.204 1.836-.612.442-.408.748-.952.918-1.632h1.071c-.227.997-.646 1.768-1.258 2.312-.601.544-1.457.816-2.567.816-.692 0-1.292-.119-1.802-.357a3.427 3.427 0 0 1-1.224-1.003 4.57 4.57 0 0 1-.714-1.479 7.037 7.037 0 0 1-.221-1.785c0-.578.073-1.145.221-1.7a4.57 4.57 0 0 1 .714-1.479 3.443 3.443 0 0 1 1.224-1.054c.51-.272 1.11-.408 1.802-.408.702 0 1.303.142 1.802.425.498.283.901.657 1.207 1.122.317.453.544.98.68 1.581.136.59.192 1.19.17 1.802h-6.749Zm9.019-4.675h1.071v1.513h.034c.204-.533.567-.958 1.088-1.275a3.156 3.156 0 0 1 1.717-.493c.612 0 1.122.08 1.53.238.419.159.754.385 1.003.68.249.283.425.635.527 1.054.102.42.153.89.153 1.411V89h-1.071v-5.474c0-.374-.034-.72-.102-1.037a2.215 2.215 0 0 0-.357-.85 1.719 1.719 0 0 0-.697-.561c-.283-.136-.64-.204-1.071-.204a2.7 2.7 0 0 0-1.156.238 2.443 2.443 0 0 0-.85.629c-.227.26-.408.578-.544.952-.125.363-.193.76-.204 1.19V89h-1.071v-8.772Zm11.698 0h1.785v.901h-1.785v5.916c0 .351.045.629.136.833.102.193.346.3.731.323.306 0 .612-.017.918-.051v.901c-.159 0-.317.006-.476.017a6.699 6.699 0 0 1-.476.017c-.714 0-1.213-.136-1.496-.408-.283-.283-.419-.799-.408-1.547v-6.001h-1.53v-.901h1.53v-2.635h1.071v2.635Zm9.433 2.567a1.949 1.949 0 0 0-.204-.85 1.668 1.668 0 0 0-.51-.612 1.896 1.896 0 0 0-.714-.34 3.083 3.083 0 0 0-.867-.119c-.238 0-.481.028-.731.085-.238.045-.459.13-.663.255a1.372 1.372 0 0 0-.493.459c-.124.193-.187.43-.187.714 0 .238.057.442.17.612.125.159.278.295.459.408.182.113.38.21.595.289.216.068.414.125.595.17l1.428.323c.306.045.607.13.901.255.306.113.573.266.799.459.238.193.431.43.578.714.148.283.221.618.221 1.003 0 .476-.107.884-.323 1.224-.215.329-.493.6-.833.816a3.508 3.508 0 0 1-1.122.442c-.419.09-.833.136-1.241.136-1.031 0-1.87-.244-2.516-.731-.634-.487-.997-1.27-1.088-2.346h1.071c.046.725.306 1.275.782 1.649.488.363 1.088.544 1.802.544.261 0 .527-.028.799-.085a2.59 2.59 0 0 0 .782-.289c.238-.136.431-.306.578-.51a1.28 1.28 0 0 0 .238-.782c0-.26-.056-.476-.17-.646a1.215 1.215 0 0 0-.425-.442 2.49 2.49 0 0 0-.629-.306 7.02 7.02 0 0 0-.697-.204l-1.377-.306a8.957 8.957 0 0 1-.969-.306 3.725 3.725 0 0 1-.782-.442 2.023 2.023 0 0 1-.51-.646c-.124-.26-.187-.578-.187-.952 0-.442.097-.822.289-1.139a2.41 2.41 0 0 1 .782-.765 3.62 3.62 0 0 1 1.054-.425c.397-.09.788-.136 1.173-.136.442 0 .85.057 1.224.17.386.113.72.289 1.003.527.295.238.527.533.697.884.17.351.267.765.289 1.241h-1.071Zm-120.858 18.067h1.156v5.27h7.208v-5.27h1.156V113h-1.156v-5.882h-7.208V113h-1.156v-12.138Zm12.514 6.052c.034-.51.141-.952.323-1.326.181-.374.425-.68.731-.918a3.206 3.206 0 0 1 1.105-.527 5.35 5.35 0 0 1 1.394-.17c.385 0 .77.04 1.156.119a2.69 2.69 0 0 1 1.037.408c.306.204.555.493.748.867.192.363.289.839.289 1.428v4.658c0 .431.209.646.629.646a.836.836 0 0 0 .34-.068v.901c-.125.023-.238.04-.34.051a3.08 3.08 0 0 1-.357.017 1.81 1.81 0 0 1-.663-.102.939.939 0 0 1-.374-.323 1.266 1.266 0 0 1-.187-.476 5.33 5.33 0 0 1-.034-.629h-.034a7.272 7.272 0 0 1-.595.765 2.92 2.92 0 0 1-1.496.884 4.474 4.474 0 0 1-1.105.119c-.408 0-.794-.051-1.156-.153a2.64 2.64 0 0 1-.935-.442 2.42 2.42 0 0 1-.629-.799c-.148-.329-.221-.714-.221-1.156 0-.612.136-1.088.408-1.428a2.545 2.545 0 0 1 1.071-.799 6.042 6.042 0 0 1 1.513-.374 80.292 80.292 0 0 1 1.717-.221c.226-.023.425-.051.595-.085.17-.034.311-.091.425-.17a.836.836 0 0 0 .255-.357 1.39 1.39 0 0 0 .102-.578c0-.363-.063-.657-.187-.884a1.325 1.325 0 0 0-.493-.561 1.815 1.815 0 0 0-.731-.272 4.313 4.313 0 0 0-.884-.085c-.68 0-1.236.164-1.666.493-.431.317-.658.833-.68 1.547h-1.071Zm5.712 1.292h-.034c-.068.125-.199.215-.391.272a4.016 4.016 0 0 1-.51.119c-.454.079-.924.153-1.411.221a7.197 7.197 0 0 0-1.309.272 2.586 2.586 0 0 0-.986.544c-.25.227-.374.555-.374.986 0 .272.051.516.153.731.113.204.26.385.442.544.181.147.391.261.629.34.238.079.481.119.731.119.408 0 .799-.062 1.173-.187s.697-.306.969-.544c.283-.238.504-.527.663-.867.17-.34.255-.725.255-1.156v-1.394Zm4.072-7.344h1.071v1.717h-1.071v-1.717Zm0 3.366h1.071V113h-1.071v-8.772Zm3.971 0h.986v2.057h.034c.272-.714.691-1.264 1.258-1.649.578-.385 1.264-.561 2.057-.527v1.071a3.132 3.132 0 0 0-1.326.204 2.97 2.97 0 0 0-1.037.646 3 3 0 0 0-.663 1.02 3.31 3.31 0 0 0-.238 1.275V113h-1.071v-8.772Zm17.047 2.567a1.976 1.976 0 0 0-.204-.85 1.693 1.693 0 0 0-.51-.612 1.891 1.891 0 0 0-.714-.34 3.094 3.094 0 0 0-.867-.119c-.238 0-.482.028-.731.085-.238.045-.459.13-.663.255a1.359 1.359 0 0 0-.493.459c-.125.193-.187.431-.187.714 0 .238.056.442.17.612.124.159.277.295.459.408.181.113.379.21.595.289.215.068.413.125.595.17l1.428.323c.306.045.606.13.901.255.306.113.572.266.799.459.238.193.43.431.578.714.147.283.221.618.221 1.003 0 .476-.108.884-.323 1.224a2.726 2.726 0 0 1-.833.816 3.533 3.533 0 0 1-1.122.442c-.42.091-.833.136-1.241.136-1.032 0-1.87-.244-2.516-.731-.635-.487-.998-1.269-1.088-2.346h1.071c.045.725.306 1.275.782 1.649.487.363 1.088.544 1.802.544.26 0 .527-.028.799-.085a2.6 2.6 0 0 0 .782-.289c.238-.136.43-.306.578-.51.158-.215.238-.476.238-.782 0-.261-.057-.476-.17-.646a1.224 1.224 0 0 0-.425-.442 2.486 2.486 0 0 0-.629-.306 7.268 7.268 0 0 0-.697-.204l-1.377-.306a8.949 8.949 0 0 1-.969-.306 3.688 3.688 0 0 1-.782-.442 1.996 1.996 0 0 1-.51-.646c-.125-.261-.187-.578-.187-.952 0-.442.096-.822.289-1.139.204-.317.464-.572.782-.765a3.597 3.597 0 0 1 1.054-.425 5.224 5.224 0 0 1 1.173-.136c.442 0 .85.057 1.224.17.385.113.719.289 1.003.527.294.238.527.533.697.884.17.351.266.765.289 1.241h-1.071Zm5.481-2.567h1.785v.901h-1.785v5.916c0 .351.046.629.136.833.102.193.346.3.731.323.306 0 .612-.017.918-.051v.901c-.158 0-.317.006-.476.017a6.859 6.859 0 0 1-.476.017c-.714 0-1.212-.136-1.496-.408-.283-.283-.419-.799-.408-1.547v-6.001h-1.53v-.901h1.53v-2.635h1.071v2.635Zm3.194 0h1.139l2.89 7.48 2.703-7.48h1.071l-3.808 10.098c-.158.374-.306.68-.442.918a1.884 1.884 0 0 1-.459.578 1.295 1.295 0 0 1-.578.306c-.215.068-.493.102-.833.102a14.295 14.295 0 0 1-.51-.034.87.87 0 0 1-.306-.051v-.901c.125.023.244.04.357.051.125.023.25.034.374.034.238 0 .431-.034.578-.102.159-.068.295-.164.408-.289.114-.113.21-.255.289-.425.08-.17.165-.357.255-.561l.374-.986-3.502-8.738Zm9.723-3.366h1.071V113h-1.071v-12.138Zm3.987 0h1.071v1.717h-1.071v-1.717Zm0 3.366h1.071V113h-1.071v-8.772Zm3.954 0h1.071v1.513h.034c.204-.533.567-.958 1.088-1.275a3.153 3.153 0 0 1 1.717-.493c.612 0 1.122.079 1.53.238.419.159.754.385 1.003.68.249.283.425.635.527 1.054.102.419.153.89.153 1.411V113h-1.071v-5.474c0-.374-.034-.72-.102-1.037a2.213 2.213 0 0 0-.357-.85 1.719 1.719 0 0 0-.697-.561c-.283-.136-.64-.204-1.071-.204-.431 0-.816.079-1.156.238a2.44 2.44 0 0 0-.85.629 2.988 2.988 0 0 0-.544.952 3.943 3.943 0 0 0-.204 1.19V113h-1.071v-8.772Zm17.41 8.058c0 .646-.074 1.23-.221 1.751a3.328 3.328 0 0 1-.663 1.326c-.306.363-.708.64-1.207.833-.487.193-1.088.289-1.802.289-.442 0-.873-.051-1.292-.153a3.795 3.795 0 0 1-1.139-.476 2.912 2.912 0 0 1-.833-.833c-.215-.329-.34-.725-.374-1.19h1.071c.057.329.164.601.323.816.17.227.368.408.595.544a2.6 2.6 0 0 0 .782.289c.283.068.572.102.867.102.997 0 1.717-.283 2.159-.85.442-.567.663-1.383.663-2.448v-1.19h-.034c-.249.544-.618.98-1.105 1.309-.476.329-1.037.493-1.683.493-.703 0-1.303-.113-1.802-.34a3.507 3.507 0 0 1-1.241-.969 4 4 0 0 1-.697-1.428 6.884 6.884 0 0 1-.221-1.768c0-.601.085-1.167.255-1.7a4.324 4.324 0 0 1 .765-1.411c.34-.408.754-.725 1.241-.952.499-.238 1.065-.357 1.7-.357a2.983 2.983 0 0 1 1.717.527c.238.159.448.346.629.561.193.215.34.442.442.68h.034v-1.513h1.071v8.058Zm-3.893-.289c.465 0 .873-.096 1.224-.289a2.94 2.94 0 0 0 .884-.782 3.41 3.41 0 0 0 .527-1.122c.125-.419.187-.85.187-1.292 0-.431-.051-.861-.153-1.292a3.717 3.717 0 0 0-.493-1.173 2.643 2.643 0 0 0-.884-.85c-.351-.215-.782-.323-1.292-.323s-.946.108-1.309.323a2.701 2.701 0 0 0-.901.816c-.238.34-.414.731-.527 1.173a5.738 5.738 0 0 0-.153 1.326c0 .442.057.873.17 1.292.113.419.289.793.527 1.122.238.317.538.578.901.782.363.193.793.289 1.292.289Zm-83.189 12.865h1.292l7.072 10.268h.034v-10.268h1.156V137h-1.292l-7.072-10.268h-.034V137h-1.156v-12.138Zm12.531 6.052c.034-.51.141-.952.323-1.326.181-.374.425-.68.731-.918a3.206 3.206 0 0 1 1.105-.527 5.35 5.35 0 0 1 1.394-.17c.385 0 .77.04 1.156.119a2.69 2.69 0 0 1 1.037.408c.306.204.555.493.748.867.192.363.289.839.289 1.428v4.658c0 .431.209.646.629.646a.836.836 0 0 0 .34-.068v.901c-.125.023-.238.04-.34.051a3.08 3.08 0 0 1-.357.017 1.81 1.81 0 0 1-.663-.102.939.939 0 0 1-.374-.323 1.266 1.266 0 0 1-.187-.476 5.33 5.33 0 0 1-.034-.629h-.034a7.272 7.272 0 0 1-.595.765 2.92 2.92 0 0 1-1.496.884 4.474 4.474 0 0 1-1.105.119c-.408 0-.794-.051-1.156-.153a2.64 2.64 0 0 1-.935-.442 2.42 2.42 0 0 1-.629-.799c-.148-.329-.221-.714-.221-1.156 0-.612.136-1.088.408-1.428a2.545 2.545 0 0 1 1.071-.799 6.042 6.042 0 0 1 1.513-.374 80.292 80.292 0 0 1 1.717-.221c.226-.023.425-.051.595-.085.17-.034.311-.091.425-.17a.836.836 0 0 0 .255-.357 1.39 1.39 0 0 0 .102-.578c0-.363-.063-.657-.187-.884a1.325 1.325 0 0 0-.493-.561 1.815 1.815 0 0 0-.731-.272 4.313 4.313 0 0 0-.884-.085c-.68 0-1.236.164-1.666.493-.431.317-.658.833-.68 1.547h-1.071Zm5.712 1.292h-.034c-.068.125-.199.215-.391.272a4.016 4.016 0 0 1-.51.119c-.454.079-.924.153-1.411.221a7.197 7.197 0 0 0-1.309.272 2.586 2.586 0 0 0-.986.544c-.25.227-.374.555-.374.986 0 .272.051.516.153.731.113.204.26.385.442.544.181.147.391.261.629.34.238.079.481.119.731.119.408 0 .799-.062 1.173-.187s.697-.306.969-.544c.283-.238.504-.527.663-.867.17-.34.255-.725.255-1.156v-1.394Zm4.072-7.344h1.071v1.717h-1.071v-1.717Zm0 3.366h1.071V137h-1.071v-8.772Zm3.988-3.366h1.071V137h-1.071v-12.138Zm9.224 5.933a1.976 1.976 0 0 0-.204-.85 1.693 1.693 0 0 0-.51-.612 1.891 1.891 0 0 0-.714-.34 3.094 3.094 0 0 0-.867-.119c-.238 0-.482.028-.731.085-.238.045-.459.13-.663.255a1.359 1.359 0 0 0-.493.459c-.125.193-.187.431-.187.714 0 .238.056.442.17.612.124.159.277.295.459.408.181.113.379.21.595.289.215.068.413.125.595.17l1.428.323c.306.045.606.13.901.255.306.113.572.266.799.459.238.193.43.431.578.714.147.283.221.618.221 1.003 0 .476-.108.884-.323 1.224a2.726 2.726 0 0 1-.833.816 3.533 3.533 0 0 1-1.122.442c-.42.091-.833.136-1.241.136-1.032 0-1.87-.244-2.516-.731-.635-.487-.998-1.269-1.088-2.346h1.071c.045.725.306 1.275.782 1.649.487.363 1.088.544 1.802.544.26 0 .527-.028.799-.085a2.6 2.6 0 0 0 .782-.289c.238-.136.43-.306.578-.51.158-.215.238-.476.238-.782 0-.261-.057-.476-.17-.646a1.224 1.224 0 0 0-.425-.442 2.486 2.486 0 0 0-.629-.306 7.268 7.268 0 0 0-.697-.204l-1.377-.306a8.949 8.949 0 0 1-.969-.306 3.688 3.688 0 0 1-.782-.442 1.996 1.996 0 0 1-.51-.646c-.125-.261-.187-.578-.187-.952 0-.442.096-.822.289-1.139.204-.317.464-.572.782-.765a3.597 3.597 0 0 1 1.054-.425 5.224 5.224 0 0 1 1.173-.136c.442 0 .85.057 1.224.17.385.113.719.289 1.003.527.294.238.527.533.697.884.17.351.266.765.289 1.241h-1.071Zm-35.51 18.067h1.156v11.152h6.8V161h-7.956v-12.138Zm9.675 6.052c.034-.51.142-.952.323-1.326.181-.374.425-.68.731-.918a3.215 3.215 0 0 1 1.105-.527 5.35 5.35 0 0 1 1.394-.17c.385 0 .771.04 1.156.119a2.69 2.69 0 0 1 1.037.408c.306.204.555.493.748.867.193.363.289.839.289 1.428v4.658c0 .431.21.646.629.646a.832.832 0 0 0 .34-.068v.901c-.125.023-.238.04-.34.051a3.08 3.08 0 0 1-.357.017 1.81 1.81 0 0 1-.663-.102.945.945 0 0 1-.374-.323 1.266 1.266 0 0 1-.187-.476 5.33 5.33 0 0 1-.034-.629h-.034a7.272 7.272 0 0 1-.595.765 2.92 2.92 0 0 1-1.496.884 4.469 4.469 0 0 1-1.105.119c-.408 0-.793-.051-1.156-.153a2.648 2.648 0 0 1-.935-.442 2.433 2.433 0 0 1-.629-.799c-.147-.329-.221-.714-.221-1.156 0-.612.136-1.088.408-1.428a2.545 2.545 0 0 1 1.071-.799 6.053 6.053 0 0 1 1.513-.374 81.125 81.125 0 0 1 1.717-.221c.227-.023.425-.051.595-.085.17-.034.312-.091.425-.17a.836.836 0 0 0 .255-.357 1.39 1.39 0 0 0 .102-.578c0-.363-.062-.657-.187-.884a1.318 1.318 0 0 0-.493-.561 1.815 1.815 0 0 0-.731-.272 4.313 4.313 0 0 0-.884-.085c-.68 0-1.235.164-1.666.493-.431.317-.657.833-.68 1.547h-1.071Zm5.712 1.292h-.034c-.068.125-.198.215-.391.272a4.016 4.016 0 0 1-.51.119c-.453.079-.924.153-1.411.221a7.215 7.215 0 0 0-1.309.272 2.594 2.594 0 0 0-.986.544c-.249.227-.374.555-.374.986 0 .272.051.516.153.731.113.204.261.385.442.544.181.147.391.261.629.34.238.079.482.119.731.119.408 0 .799-.062 1.173-.187s.697-.306.969-.544c.283-.238.504-.527.663-.867.17-.34.255-.725.255-1.156v-1.394Zm9.308-1.411a1.948 1.948 0 0 0-.204-.85 1.673 1.673 0 0 0-.51-.612 1.891 1.891 0 0 0-.714-.34 3.094 3.094 0 0 0-.867-.119c-.238 0-.481.028-.731.085-.238.045-.459.13-.663.255a1.367 1.367 0 0 0-.493.459 1.295 1.295 0 0 0-.187.714c0 .238.057.442.17.612.125.159.278.295.459.408.182.113.38.21.595.289.216.068.414.125.595.17l1.428.323c.306.045.607.13.901.255.306.113.573.266.799.459.238.193.431.431.578.714.148.283.221.618.221 1.003 0 .476-.107.884-.323 1.224a2.715 2.715 0 0 1-.833.816 3.514 3.514 0 0 1-1.122.442 5.836 5.836 0 0 1-1.241.136c-1.031 0-1.87-.244-2.516-.731-.634-.487-.997-1.269-1.088-2.346h1.071c.046.725.306 1.275.782 1.649.488.363 1.088.544 1.802.544.261 0 .527-.028.799-.085a2.59 2.59 0 0 0 .782-.289c.238-.136.431-.306.578-.51.159-.215.238-.476.238-.782 0-.261-.056-.476-.17-.646a1.215 1.215 0 0 0-.425-.442 2.47 2.47 0 0 0-.629-.306 7.185 7.185 0 0 0-.697-.204l-1.377-.306a9.092 9.092 0 0 1-.969-.306 3.738 3.738 0 0 1-.782-.442 2.023 2.023 0 0 1-.51-.646c-.124-.261-.187-.578-.187-.952 0-.442.097-.822.289-1.139a2.41 2.41 0 0 1 .782-.765 3.62 3.62 0 0 1 1.054-.425 5.237 5.237 0 0 1 1.173-.136c.442 0 .85.057 1.224.17.386.113.72.289 1.003.527.295.238.527.533.697.884.17.351.267.765.289 1.241h-1.071Zm3.765-5.933h1.071v4.879h.034c.204-.533.567-.958 1.088-1.275a3.153 3.153 0 0 1 1.717-.493c.612 0 1.122.079 1.53.238.419.159.754.385 1.003.68.249.283.425.635.527 1.054.102.419.153.89.153 1.411V161h-1.071v-5.474c0-.374-.034-.72-.102-1.037a2.213 2.213 0 0 0-.357-.85 1.719 1.719 0 0 0-.697-.561c-.283-.136-.64-.204-1.071-.204-.431 0-.816.079-1.156.238a2.44 2.44 0 0 0-.85.629 2.988 2.988 0 0 0-.544.952 3.943 3.943 0 0 0-.204 1.19V161h-1.071v-12.138Zm16.305 7.14a3.73 3.73 0 0 0-.221-1.173 2.984 2.984 0 0 0-.544-.986 2.587 2.587 0 0 0-.867-.697 2.424 2.424 0 0 0-1.156-.272c-.442 0-.833.091-1.173.272-.34.17-.629.402-.867.697a3.464 3.464 0 0 0-.578 1.003 5.027 5.027 0 0 0-.272 1.156h5.678Zm-5.678.901c0 .385.051.788.153 1.207.113.408.289.776.527 1.105.238.329.538.601.901.816.362.215.799.323 1.309.323.782 0 1.394-.204 1.836-.612.442-.408.748-.952.918-1.632h1.071c-.227.997-.646 1.768-1.258 2.312-.601.544-1.457.816-2.567.816-.692 0-1.292-.119-1.802-.357a3.427 3.427 0 0 1-1.224-1.003 4.576 4.576 0 0 1-.714-1.479 7.04 7.04 0 0 1-.221-1.785c0-.578.073-1.145.221-1.7a4.576 4.576 0 0 1 .714-1.479 3.446 3.446 0 0 1 1.224-1.054c.51-.272 1.11-.408 1.802-.408.702 0 1.303.142 1.802.425.498.283.901.657 1.207 1.122.317.453.544.98.68 1.581.136.589.192 1.19.17 1.802h-6.749Zm14.289-2.108a1.948 1.948 0 0 0-.204-.85 1.693 1.693 0 0 0-.51-.612 1.891 1.891 0 0 0-.714-.34 3.094 3.094 0 0 0-.867-.119c-.238 0-.482.028-.731.085-.238.045-.459.13-.663.255a1.367 1.367 0 0 0-.493.459c-.125.193-.187.431-.187.714 0 .238.057.442.17.612.125.159.278.295.459.408.181.113.38.21.595.289.215.068.414.125.595.17l1.428.323c.306.045.606.13.901.255.306.113.572.266.799.459.238.193.431.431.578.714.147.283.221.618.221 1.003 0 .476-.108.884-.323 1.224a2.715 2.715 0 0 1-.833.816 3.533 3.533 0 0 1-1.122.442 5.836 5.836 0 0 1-1.241.136c-1.031 0-1.87-.244-2.516-.731-.635-.487-.997-1.269-1.088-2.346h1.071c.045.725.306 1.275.782 1.649.487.363 1.088.544 1.802.544.261 0 .527-.028.799-.085a2.6 2.6 0 0 0 .782-.289c.238-.136.431-.306.578-.51.159-.215.238-.476.238-.782 0-.261-.057-.476-.17-.646a1.224 1.224 0 0 0-.425-.442 2.47 2.47 0 0 0-.629-.306 7.268 7.268 0 0 0-.697-.204l-1.377-.306a9.092 9.092 0 0 1-.969-.306 3.713 3.713 0 0 1-.782-.442 2.023 2.023 0 0 1-.51-.646c-.125-.261-.187-.578-.187-.952 0-.442.096-.822.289-1.139a2.41 2.41 0 0 1 .782-.765 3.608 3.608 0 0 1 1.054-.425 5.237 5.237 0 0 1 1.173-.136c.442 0 .85.057 1.224.17.385.113.72.289 1.003.527.295.238.527.533.697.884.17.351.266.765.289 1.241H513.6Z"/>
</svg>
