<svg xmlns="http://www.w3.org/2000/svg" width="304" height="178" fill="none" viewBox="0 0 304 178">
  <path fill="#fff" d="M301.241 151.254C300.763 69.11 233.824 2.426 151.619 2.426 69.415 2.426 2.476 69.11 1.989 151.254h299.252Z"/>
  <path fill="#231F20" d="M303.02 153.025H.22v-.886C.22 68.614 68.14.655 151.62.655c83.479 0 151.4 67.959 151.4 151.484v.886ZM1.99 151.254h299.25C300.763 69.11 233.824 2.425 151.62 2.425 69.415 2.425 2.476 69.11 1.99 151.254Zm66.664 18.975c.885-.496 1.363-1.31 1.363-2.364 0-1.709-1.336-2.869-3.319-2.887h-1.707v-.071h-1.894v.762h.343s.018.009.063.053c.018.018.026.062.026.124v9.82c0 .08-.017.124-.044.159a8.635 8.635 0 0 0-.062.062h-.327v.726h1.893v-.044h2.275c3 0 3.796-2.028 3.796-3.232-.017-1.549-.982-2.763-2.407-3.117v.009Zm.053-2.408c0 1.469-.637 2.213-1.893 2.213-.965 0-1.434-.071-1.832-.203v-4.242h2.141c.77 0 1.584.779 1.584 2.232Zm-3.725 2.647c.433.106.902.177 1.584.177h1.017c.346 0 .885.16 1.337.62.336.345.743.965.734 1.992 0 1.01-.283 2.701-2.168 2.701h-2.513v-5.481l.009-.009Zm18.654 5.481h-.124c-.08.018-.168.018-.248.018h-3.628v-5.596h4.239v-.656h-4.239v-3.993h2.974c.247-.009.504 0 .743.035l.23.036c.327.053.628.124.867.23.292.106.54.221.735.354l.433.301v-1.788l-.31.026a2.808 2.808 0 0 1-.274.018h-.07c-.487.026-1.098.026-1.337.026h-5.885v.762h.345s.018.009.062.053c.018.018.027.062.027.124v9.829c0 .115-.036.15-.036.159a.337.337 0 0 1-.08.062h-.044l-.265-.018v.744h8.39v-1.877l-.46.398c-.602.514-1.585.673-1.983.718h-.044l-.018.035Zm18.081-.327a1.537 1.537 0 0 0-.098-.213l-3.947-10.121-.044-.31H96.08l.478 1.275-3.283 9.183c-.221.513-.274.513-.398.522l-.274.027v.717h1.938v-.611l-.16-.044c-.159-.045-.256-.116-.31-.213-.088-.159-.026-.372 0-.469l.912-2.595h4.044l1.036 2.719c.115.301.097.416.071.46-.027.053-.115.08-.248.098l-.195.017v.638h2.664v-.638l-.195-.026c-.301-.036-.336-.133-.46-.416h.018Zm-6.496-3.542 1.717-4.862 1.84 4.862h-3.557Zm22.159-4.552v.248a94.77 94.77 0 0 1 .106 3.843v.461c0 2.027-1.168 4.214-3.734 4.214-1.416 0-3.08-.965-3.08-3.674v-7.642h-1.876v.691l.336.044s.018 0 .053.044c.009.018.036.054.036.169v6.791c0 2.984 2.23 4.321 4.442 4.321 1.195 0 2.292-.398 3.098-1.107.973-.867 1.495-2.187 1.495-3.816v-.46c0-1.364.089-2.949.168-4.003v-.079c.036-.408.062-.7.062-.797v-.045c.009-.168.018-.301.027-.425l.018-.185s0-.08.017-.124c.036-.31.062-.523.098-.682l.07-.337h-1.389l.062 2.55h-.009Zm10.124-1.824c.124-.017.248-.026.398-.044.168-.018.354-.027.549-.027h.495v10.015c0 .08-.017.133-.044.159a.45.45 0 0 1-.071.062h-.318v.726h2.318v-.69l-.336-.044s-.018 0-.053-.045c-.026-.026-.044-.088-.044-.168v-10.032h.522c.451 0 .903.044 1.292.115.327.071.593.15.814.257l.044.017s.045.027.071.036a2.677 2.677 0 0 1 .646.513l.478.523v-2.223h-9.195v1.975l.443-.372c.256-.213.593-.39 1.026-.54l.107-.036c.15-.053.309-.088.477-.124l.372-.062.009.009Zm20.479.912-.027.062a5.68 5.68 0 0 1-.274.523l-1.77 2.904-2.558-3.834-.929-1.399h-1.735l.027.735h.257c.177 0 .212 0 .354.204l3.504 5.33v4.516c0 .053-.009.124-.044.159-.044.045-.071.062-.062.062h-.319v.726h2.319v-.69l-.336-.044s-.018 0-.053-.054c-.027-.026-.036-.088-.036-.168v-.416l.018-4.321 2.593-4.153.265-.425a8.8 8.8 0 0 1 .301-.46l.664-1.01h-1.522l-.053.204c-.098.381-.284.832-.363 1.045a4.77 4.77 0 0 1-.186.451l-.027.045-.008.008Zm26.672-1.053.337.044s.017 0 .053.044c.009.018.035.053.035.169v3.55h-5.699v-3.515l.018-.133c0-.026.026-.062.053-.097.009-.009.026-.027.088-.027h.275v-.726h-2.319v.691l.336.044s.018 0 .053.044c.009.018.045.062.045.169v9.828c0 .071-.018.133-.045.159-.044.045-.07.062-.061.062h-.319v.727h2.319v-.691l-.337-.044s-.017 0-.053-.045c-.009-.008-.035-.053-.035-.168v-5.49h5.699v5.49c0 .071-.018.133-.044.159-.045.045-.071.062-.062.062h-.319v.727h2.319v-.691l-.337-.044s-.017 0-.053-.045c-.008-.008-.035-.053-.035-.168v-9.793l.018-.124c0-.027.026-.062.053-.106.009-.009.026-.027.088-.027h.275v-.726h-2.319v.691h-.027Zm14.567-.974c-3.39 0-5.85 2.594-5.85 6.154 0 4.09 3.027 6.304 5.876 6.304 3.381 0 5.832-2.577 5.832-6.136 0-4.091-3.018-6.305-5.867-6.314l.009-.008Zm-4.399 6.145c0-3.223 1.761-5.393 4.363-5.393 2.018 0 4.363 1.461 4.363 5.579 0 3.214-1.752 5.374-4.354 5.374-2.018 0-4.38-1.452-4.38-5.56h.008Zm25.292-3.206v.248c.054 1.24.107 2.639.107 3.843v.461c0 2.027-1.169 4.214-3.735 4.214-1.416 0-3.08-.965-3.08-3.674v-7.642h-1.876v.691l.337.044s.017 0 .053.044c.008.018.035.054.035.169v6.791c0 2.984 2.23 4.321 4.443 4.321 1.194 0 2.292-.398 3.097-1.107.973-.867 1.496-2.187 1.496-3.816v-.46c0-1.364.088-2.949.168-4.003v-.079c.035-.408.062-.7.062-.797v-.045c.008-.168.017-.301.026-.425l.018-.185s0-.08.018-.124c.035-.31.062-.523.097-.682l.071-.337h-1.39l.062 2.55h-.009Zm13.01-2.426c-.15-.026-.301-.053-.442-.08h-.071c-.062-.017-.08-.017-.053-.017a9.162 9.162 0 0 0-1.168-.08c-2.08 0-3.584 1.24-3.584 2.949 0 1.709.876 2.196 2.009 2.745l1.876.903c1.832.885 2.522 1.319 2.522 2.328 0 1.329-1.549 2.028-2.673 2.028-.69 0-1.318-.115-1.849-.327l-.169-.08a3.47 3.47 0 0 1-.601-.345 2.453 2.453 0 0 1-.602-.541l-.496-.681-.017 2.302.15.053.044.018c.168.053.354.106.576.15h.053c.097.027.212.044.363.08l.292.053c.053.009.115.018.159.027.212.026.354.053.327.044.46.053.912.088 1.275.088 2.982 0 4.035-1.788 4.035-3.311 0-1.877-1.062-2.471-3.088-3.427l-1.629-.779c-.805-.39-1.672-.868-1.672-1.629 0-.992 1.177-1.895 2.46-1.895.655 0 1.203.15 1.549.274l.035.018.124.053h.018s.008.009.017.009l.071.035c.062.027.124.062.204.107l.132.07c.257.151.496.328.691.514l.469.443v-1.55l-.036-.168-.141-.053a5.23 5.23 0 0 0-.505-.16c-.079-.017-.177-.035-.301-.07l-.159-.036-.186-.035-.009-.027Zm14.54 10.847h-.124c-.079.018-.168.018-.247.018h-3.629v-5.596h4.239v-.656h-4.239v-3.993h2.974c.248-.009.504 0 .743.035l.23.036c.328.053.629.124.868.23.292.106.539.221.734.354l.434.301v-1.788l-.31.026a2.82 2.82 0 0 1-.274.018h-.071c-.487.026-1.098.026-1.336.026h-5.886v.762h.346s.017.009.062.053c.017.018.026.062.026.124v9.829c0 .115-.035.15-.035.159a.343.343 0 0 1-.08.062h-.044l-.266-.018v.744h8.39v-1.877l-.46.398c-.602.514-1.584.673-1.983.718h-.044l-.018.035Z"/>
  <path fill="#231F20" d="M46.734 133.535c-1.372 2.002-3.266 3.401-5.257 4.384H28.77v-30.372c0-1.718.283-2.94.77-3.807h-8.248c.443.85.646 1.983.646 3.418v26.165c0 1.204 0 3.099-.717 4.596h-.088v.433h25.593v-4.817h.009Zm62.567-29.795h-7.974c.894 1.487 1.089 3.48 1.089 4.923v24.589c0 1.151 0 3.418-.912 5.092h9.292c-.911-1.231-1.495-3.188-1.495-6.269v-28.344.009Zm16.336 1.293c-1.451-.611-3.124-1.019-4.92-1.284 1.256 1.726 1.902 4.604 1.902 9.386 0 4.781-.61 7.606-1.849 9.324 6.416-.966 10.133-3.489 10.133-9.324 0-4.011-1.673-6.588-5.266-8.102Zm-43.292 33.319c-.584-.735-1.168-1.726-1.761-3.081 0-.018-.84-1.948-13.452-31.531h-.61l-12.523 30.973c-.911 1.638-1.734 2.807-2.486 3.639h5.132a6.792 6.792 0 0 1-.699-.885c-.672-1.027-1.053-2.187-1.256-3.329l8.575-21.216 8.213 19.303c.362.735 1.796 3.878.929 6.136h9.911l.027-.009Zm84.222 0c-.584-.735-1.169-1.726-1.761-3.081 0-.018-.841-1.948-13.452-31.531h-.611l-12.522 30.973c-.911 1.638-1.734 2.807-2.487 3.639h5.133a6.843 6.843 0 0 1-.699-.885c-.673-1.027-1.053-2.187-1.257-3.329l8.576-21.216 8.212 19.303c.363.735 1.797 3.878.929 6.136h9.912l.027-.009Zm115.532 0c-.584-.735-1.168-1.726-1.761-3.081 0-.018-.841-1.948-13.452-31.531h-.61l-12.523 30.973c-.911 1.638-1.734 2.807-2.486 3.639h5.132a6.843 6.843 0 0 1-.699-.885c-.672-1.027-1.053-2.187-1.256-3.329l8.575-21.216 8.212 19.303c.363.735 1.797 3.878.93 6.136h9.911l.027-.009Zm-44.566.001h8.69c-.673-1.01-1.106-2.48-1.106-4.587v-26.157c0-1.381.124-2.771.708-3.86h-8.045l-10.548 26.44-13.16-26.44h-9.186v29.636c-.69 1.922-1.681 3.693-3.071 4.976h6.585c-1.39-1.31-2.399-3.161-3.071-5.233v-28.804l17.867 34.055h1.239l13.646-34.205c.133.566.328 1.718.328 3.542v26.05c0 1.594-.142 3.303-.867 4.587h-.009Zm-45.94-.435h-11.247c-4.178-44.087 4.805-65.24 7.929-71.102v-6.41c-17.213 28.157-17.018 77.946-17.018 77.946h25.593v-4.817c-1.372 2.002-3.265 3.401-5.257 4.383Zm-3.363-83.1 3.08-.274s-1.894 5.304-1.549 11.617l3.408-2.559s-3.806 4.843-.107 10.873l4.151-4.63s-2.602 4.294-2.575 7.951l2.575-3.462s-3.841 6.659 3.088 13.689c0 0 2.107 2.586 1.779 4.852 0 0 4.452-5.605 4.301-15.734l-3.929-2.285s1.575-1.018 3.628.965c0 0 1.292-7.26-3.451-9.129h1.885s.495-12.936-10.168-16.602c0 0 8.035 4.888 7.663 35.755 0 0-2.141-31.709-8.628-35.897l-5.151 4.87Zm3.938-5.853s-2.61 4.746-5.256 4.162l.079-3.055s-.407 3.382-3.787 3.64c-3.381.256-7.31.495-7.31.495l.159-4.746s-2.646 1.594-2.46 6.163l-8.664 3.728s-2.248-2.728-2.265-5.366c0 0-1.416 4.604.088 6.791 0 0-5.221 4.463-5.903 7.65 0 0-.991-21.667 19.638-23.544 0 0 7.062-.363 15.673 4.073l.008.01Zm5.266 1.7 2.611-5.339s-2.204-.717-2.761-1.7l3.159.744 1.018-5.517-2.124-1.337 2.159.496.345-4.1-2.991-.54 2.991-.478.399-3.426-2.345-.567s2.593-.806 2.637-2.293c.044-1.488 1.354-2.94 1.354-2.94s-3.416.017-4.204 2.541l-.292-.859-4.575 3.755.54 1.576-1.186-.86-1 1.355s-.478.673.371 1.577l1.363 1.788s-1.548-.478-2.398-2.187c0 0-2.911 5.392-1.681 6.924l1.009 1.426-1.487-1.222v1.434s-3.717-5.702-8.319-8.323c-4.602-2.62-14.965-6.827-21.354-.894l5.575 1.08s.451-1.603 1.77-2.541l-.575 2.833 4.372 2.701s.504-2.32 3.407-3.71l-5.425-1.948s17.832 2.966 22.982 18.302c0 0-.575-11.29 8.399-22.251 0 0-5 5.277-7.788 22.597 0 0 1.797.354 4.044 1.895v.008Z"/>
  <path fill="#231F20" d="M197.629 50.807s3.186 2.072 5.726 6.304c0 0 1.531-.23.61-1.832-.92-1.603-.185-4.215-.185-4.215l1.477 4.117s2.478-2.09 2.744-3.922c.265-1.833.469-2.825.796-3.33l-.274 3.507s3.903-2.32 7.009-2.47c0 0-.159-2.507-.912-4.012 0 0 1.859 2.621 2.452 3.95l2.389.212v-3.338s1.071 2.284 1.478 3.683l1.434.487.318-1.151s.283 1.558 1.115 1.77c0 0 4.222 2.153 5.062 3.065 0 0-6.84-15.611-21.124-9.342 0 0-3.584 1.39-10.133 6.517h.018Zm-22.063-18.462s-2.362 2.524-1.734 5.313l1.15 1.257s.576-1.523 2.018-2.01c0 0-1.708 2.125-1.221 3.1l.487.53s1.407-3.196 3.991-3.851c0 0-3.16 4.427-2.646 5.8.513 1.372 3.115 1.416 3.363 1.452 2.398.319 5.654.868 11.478 4.764 0 0-5.372-10.617-16.877-16.346l-.009-.009Z"/>
</svg>
