<svg xmlns="http://www.w3.org/2000/svg" width="224" height="154" fill="none" viewBox="0 0 224 154">
  <g clip-path="url(#a)">
    <path fill="#CE7A23" d="M161.853 22.103 80.158 9.474c-33.846-5.232-65.51 17.857-70.721 51.57-5.212 33.715 18.001 65.287 51.848 70.519l81.695 12.629c33.846 5.233 65.509-17.856 70.721-51.57 5.212-33.714-18.001-65.286-51.848-70.519Z"/>
    <path fill="#231F20" d="m138.737 44.806-43.396-6.708-.214 1.382 43.396 6.708.214-1.382ZM75.231 94.084l-.306.669-.085.19-1.865 4.194-15.51-2.397 11.398-12.406c5.61-5.509 5.031-9.163 4.186-10.855-1.054-2.13-3.734-3.407-6.34-3.02-2.547.378-4.359 2.192-4.814 4.897l-.028.18-.845-.26.022-.144c.373-2.533 1.381-4.398 3.033-5.54 2.603-1.802 5.82-1.14 5.965-1.117 4.197.649 7.037 4.23 6.43 8.16-.38 2.459-2.163 4.205-5.423 7.394-.39.38-.805.794-1.24 1.223-1.202 1.211-3.781 3.936-7.655 8.115l-1.529 1.656 9.346 1.353c1.279.198 3.064-.133 4.276-1.654l.066-.064.342.053.594-.624-.018-.003Zm30.806-4.315c-.849 5.491-3.728 14.454-13.492 12.945-9.764-1.51-9.854-10.95-9.008-16.424 2.042-13.208 9.409-14.09 13.624-13.439 4.216.652 10.918 3.709 8.876 16.918Zm-19.708-3.047c-.807 5.222-1.065 14.168 6.321 15.31 3.837.593 8.806-1.12 10.595-12.695 2.022-13.083-3.649-15.411-6.19-15.804-7.655-1.184-10.05 8.827-10.725 13.189Zm42.171 15.596-.307.67-.084.189-1.866 4.195-15.51-2.398 11.398-12.405c5.61-5.509 5.032-9.163 4.187-10.856-1.055-2.129-3.734-3.407-6.34-3.02-2.548.378-4.36 2.193-4.815 4.897l-.027.18-.846-.26.023-.143c.373-2.533 1.38-4.399 3.032-5.54 2.603-1.802 5.821-1.14 5.965-1.117 4.197.648 7.037 4.23 6.43 8.16-.38 2.459-2.163 4.204-5.422 7.394-.391.38-.806.794-1.241 1.223-1.201 1.21-3.781 3.936-7.655 8.114l-1.528 1.657 9.345 1.353c1.279.197 3.064-.133 4.277-1.655l.065-.063.342.053.595-.625-.018-.003Zm30.806-4.315c-.849 5.492-3.729 14.455-13.493 12.946-9.764-1.51-9.854-10.95-9.007-16.424 2.042-13.208 9.408-14.09 13.624-13.44 4.215.653 10.917 3.71 8.876 16.918Zm-19.708-3.046c-.807 5.222-1.065 14.168 6.321 15.31 3.837.593 8.805-1.12 10.594-12.695 2.023-13.083-3.649-15.412-6.189-15.804-7.656-1.184-10.052 8.828-10.726 13.189Zm7.31-31.064a.712.712 0 0 0-.551-.25.772.772 0 0 0-.588.221c-1.372 1.24-2.647 2.09-3.83 2.587-1.163.482-2.182.747-2.999.786-.836.036-1.423.019-1.745-.05a3.5 3.5 0 0 1-1.34-.519c-.435-.288-.701-.715-.807-1.337-.065-.415-.009-.902.183-1.424.856-.051 1.855-.19 2.974-.385 1.118-.195 2.112-.537 2.983-1.046.851-.493 1.298-1.233 1.316-2.185a1.533 1.533 0 0 0-.711-1.25 2.971 2.971 0 0 0-1.495-.47 5.609 5.609 0 0 0-2.623.624c-1.421.718-2.509 1.67-3.28 2.837a5.754 5.754 0 0 0-.515.95c-3.623 1.48-6.557 2.202-8.765 2.173-2.227-.032-3.657-.566-4.266-1.523-.622-1.107-.229-2.332 1.18-3.695.896-.78 1.817-1.373 2.78-1.757.964-.384 1.809-.602 2.56-.688.751-.086 1.264-.062 1.544.036a.263.263 0 0 1 .12.056c-.079.153-.456.444-1.169.885-.696.443-1.968 1.037-3.781 1.786a.819.819 0 0 0-.456.444.765.765 0 0 0-.002.606.747.747 0 0 0 .429.452.826.826 0 0 0 .626.005c1.75-.704 3.064-1.327 3.936-1.836.874-.526 1.441-.971 1.724-1.369.28-.379.407-.727.398-1.022.01-.66-.395-1.145-1.244-1.497-.467-.201-1.178-.256-2.13-.182-.952.073-1.989.335-3.131.802-1.139.448-2.242 1.142-3.309 2.08-.172.156-.329.334-.483.494a33.778 33.778 0 0 1-2.041 1.632c-.665.486-1.245.892-1.738 1.22-.493.328-.937.572-1.297.755-.361.183-.659.321-.909.392a5.512 5.512 0 0 1-.577.15 1.1 1.1 0 0 1-.42-.028c-.051-.026-.079-.086-.104-.163a1.03 1.03 0 0 1-.033-.262c-.004-.093-.008-.185 0-.24.203-.832.534-1.662.961-2.515.445-.85.902-1.661 1.372-2.434a31.674 31.674 0 0 0 1.421-2.629.84.84 0 0 0 .019-.603.977.977 0 0 0-.389-.464c-.087-.032-.174-.064-.283-.08-.108-.017-.281.03-.516.121a7.56 7.56 0 0 0-1.04.52c-.464.259-1.074.624-1.832 1.113-.758.49-1.739 1.11-2.91 1.884a351.539 351.539 0 0 0-4.259 2.85 34.975 34.975 0 0 1 4.644-6.062.822.822 0 0 0-.026-1.143.826.826 0 0 0-.593-.22.745.745 0 0 0-.554.245c-1.799 1.853-3.329 3.877-4.654 6.006-1.04.519-2.29.969-3.768 1.347-1.903.496-3.574.568-4.978.222-.689-.198-1.152-.545-1.37-1.038-.086-.16-.132-.462-.101-.898.012-.439.22-1.068.605-1.89.386-.823 1.062-1.858 2.017-3.144.139-.18.208-.39.166-.599a.935.935 0 0 0-.303-.543.83.83 0 0 0-.601-.166c-.207.023-.388.124-.548.32a21.832 21.832 0 0 0-1.621 2.377l-.054-.009c-3.743.708-6.861 1.31-9.357 1.824a5.868 5.868 0 0 0-.283-.797c-.21-.436-.421-.855-.672-1.261a9.609 9.609 0 0 1-.666-1.298 3.125 3.125 0 0 1-.241-1.066 1.49 1.49 0 0 1 .281-.985 1.76 1.76 0 0 1 .585-.443c.239-.11.477-.22.71-.294a11.51 11.51 0 0 1 5.33-.48 5.886 5.886 0 0 1-1.515.5.767.767 0 0 0-.512.325c-.117.166-.15.38-.112.607a.85.85 0 0 0 .366.498c.184.12.382.15.594.092a7.905 7.905 0 0 0 2.649-1.024c.08-.043.187-.136.332-.243.128-.109.228-.277.315-.484.11-.35.085-.667-.11-.954a1.637 1.637 0 0 0-.719-.607c-.277-.117-.487-.186-.616-.187a13.34 13.34 0 0 0-6.53.479 6.01 6.01 0 0 0-1.088.474 3.228 3.228 0 0 0-.973.806c-.701.957-.791 2.137-.268 3.523.229.55.502 1.051.795 1.538.218.383.42.745.584 1.119.055.119.12.294.198.508-4.37.942-6.79 1.688-7.279 2.22-.677.685-.876 1.37-.568 2.006.21.437.611.701 1.164.823.18.028.36.056.561.069a11.67 11.67 0 0 0 5.628-1.207c.316-.135.643-.341.976-.584.332-.242.622-.565.866-.95.202-.355.317-.741.36-1.139 2.137-.46 4.95-.998 8.388-1.643-.546 1.386-.63 2.53-.218 3.44.425.947 1.23 1.586 2.395 1.931.264.078.532.138.82.182 1.08.167 2.267.13 3.556-.093a20.587 20.587 0 0 0 3.539-.942c-.184.358-.387.712-.553 1.073-.148.363-.069.687.222.953a.973.973 0 0 0 .415.174.753.753 0 0 0 .559-.152c4.062-2.772 7.474-5.037 10.275-6.81-.003.018-.024.034-.045.049 0 0-.005.036-.026.05a45.28 45.28 0 0 0-1.436 2.609 13.045 13.045 0 0 0-1.062 2.812c-.068.32-.072.706.018 1.198.093.473.38.885.845 1.214.297.23.78.323 1.415.274.653-.046 1.577-.418 2.806-1.091.604-.33 1.306-.809 2.096-1.385a3.507 3.507 0 0 0 .555 2.015c.33.492.833.937 1.473 1.33.643.375 1.467.65 2.458.803 1.279.198 2.834.162 4.691-.157 1.555-.274 3.352-.805 5.335-1.582.003.22-.015.457.024.683.285 1.735 1.431 2.794 3.45 3.216l.162.025c.342.053.837.075 1.481.082.647-.01 1.401-.114 2.283-.327.863-.215 1.826-.6 2.85-1.14 1.024-.54 2.105-1.328 3.222-2.35.175-.174.26-.364.254-.566.015-.219-.068-.397-.223-.586l-.028-.06Zm-8.551-3.27a3.861 3.861 0 0 1 1.874-.426c.054.008.129.001.165.007.216.033.373.094.455.162-.005.146-.104.315-.323.538-.219.223-.657.431-1.32.66-.662.228-1.631.41-2.911.579.532-.58 1.218-1.08 2.06-1.52Zm-56.456-.734a10.174 10.174 0 0 1-4.83 1.054l-.252-.038c.026-.052.091-.115.16-.196.09-.115.583-.314 1.436-.587.872-.27 2.408-.657 4.622-1.141-.194.3-.574.61-1.172.903l.036.005Z"/>
    <path fill="#231F20" d="M97.07 51.136a.788.788 0 0 0 .615-.162.822.822 0 0 0 .343-.554c.036-.233-.026-.426-.16-.63a.752.752 0 0 0-.538-.341.86.86 0 0 0-.633.16.822.822 0 0 0-.344.552.783.783 0 0 0 .16.632.789.789 0 0 0 .556.343Z"/>
  </g>
  <defs>
    <clipPath id="a">
      <path fill="#fff" d="M18.874 0 223.14 31.578l-18.874 122.089L0 122.089z"/>
    </clipPath>
  </defs>
</svg>
