<svg xmlns="http://www.w3.org/2000/svg" width="361" height="340" fill="none" viewBox="0 0 361 340">
  <g clip-path="url(#a)">
    <path fill="#EFA693" d="M120.934 245.395s33.252 77.493 106.657 54.018c0 0 61.874-21.679 75.232-74.472 0 0-22.977 19.465-38.193 21.973-15.196 2.504-60.725 14.371-62.112-17.102 0 0-.421-6.694 10.949.962 0 0 19.371 11.994 45.615 3.4 0 0 30.679-12.836 43.121-21.714 0 0 16.636-62.966 16.737-63.325.525-1.969-1.221-1.563-2.081-1.394-2.072.444-7.789 12.132-9.677 14.1-15.59 16.236-30.903 30.69-52.404 38.793-5.008 1.894-10.292 3.437-15.624 3.152-5.224-.27-16.747-4.522-15.038-11.507 2.285-9.259 24.971-13.887 31.827-15.857 0 0 53.288-23.95 64.652-49.067 0 0-5.59-48.745-8.695-59.468-3.105-10.723-110.546 27.037-110.546 27.037s-25.173 67.751-28.17 67.501c-6.93-.564-10.873 1.404-9.858-8.507 1.611-15.871 7.443-34.803 14.197-49.192 3.844-8.198 10.689-14.16 17.88-19.39 2.281-1.646 22.337-16.255 22.725-15.87-8.163-8.084-21.089-7.788-31.2-4.123-20.182 7.32-44.206 24.992-55.089 43.759-4.719 8.139-7.166 17.334-8.532 26.578-.504 3.428.097 24.488-2.405 25.916 0 0-9.893 5.327-11.068-9.424-.586-7.365-4.116-13.654-3.736-21.36.453-9.293 3.615-18.307 7.062-26.846 5.134-12.697 10.905-25.193 18.216-36.79 2.612-4.153 25.858-30.063 24.451-31.873-1.731-2.191-8.965 1.837-10.579 2.608-9.618 4.653-17.509 12.167-24.886 19.723a444.32 444.32 0 0 0-36.138 41.947c-11.162 14.714-19.396 30.595-31.247 44.034-7.645 8.688-18.454 17.126-22.1 28.537-3.42 10.792-1.273 23.256 2.03 33.679 0 0 13.321 62.436 88.047 39.559l-.02.005Z" opacity=".8"/>
  </g>
  <defs>
    <clipPath id="a">
      <path fill="#fff" d="M-.001 72.221 65.33 339.348l295.297-72.22L295.296 0z"/>
    </clipPath>
  </defs>
</svg>
